<svg width="15" height="9" viewBox="0 0 15 9" fill="none" xmlns="http://www.w3.org/2000/svg">
	<path fill="#999" fill-rule="evenodd" clip-rule="evenodd" d="M7.11718 0.000298475C4.72374 0.024071 2.41779 1.46541 0.198737 4.08429C0.122574 4.14745 0.065643 4.2307 0.0344064 4.32458C-0.00783942 4.43595 -0.0112824 4.55831 0.0246343 4.67187C0.0605511 4.78544 0.133727 4.88356 0.232327 4.95038C2.44115 7.54444 4.73571 8.97244 7.11718 8.99613C9.52614 9.02006 11.8802 7.60175 14.1565 4.86047C14.1635 4.85207 14.1708 4.8446 14.1777 4.83618C14.1795 4.83378 14.1812 4.83137 14.1829 4.82894C14.1884 4.82202 14.1938 4.81495 14.1989 4.80776C14.2046 4.80015 14.2102 4.7924 14.2155 4.7845C14.2205 4.77654 14.2253 4.76844 14.2299 4.76021C14.2335 4.75374 14.2369 4.74719 14.2403 4.74058C14.2446 4.73208 14.2488 4.72346 14.2527 4.71474C14.2563 4.7069 14.2597 4.69897 14.263 4.69097C14.2662 4.68226 14.2691 4.67347 14.2718 4.66461C14.2742 4.65777 14.2764 4.65088 14.2785 4.64394C14.2819 4.63165 14.2848 4.61924 14.2873 4.60674C14.288 4.60416 14.2887 4.60157 14.2893 4.59898C14.2897 4.59692 14.2901 4.59485 14.2904 4.59278C14.292 4.58369 14.2934 4.57456 14.2945 4.56539C14.2959 4.55389 14.297 4.54234 14.2976 4.53077C14.2978 4.52939 14.298 4.52802 14.2981 4.52664C14.2982 4.52388 14.2982 4.52112 14.2981 4.51837C14.2987 4.50684 14.2989 4.49529 14.2987 4.48375C14.2984 4.4746 14.2979 4.46547 14.2971 4.45636C14.2964 4.44824 14.2956 4.44014 14.2945 4.43207C14.2931 4.42168 14.2914 4.41134 14.2893 4.40106C14.288 4.39362 14.2864 4.38622 14.2847 4.37884C14.283 4.37157 14.2811 4.36433 14.279 4.35714C14.2761 4.34653 14.2728 4.33602 14.2692 4.32562C14.2666 4.31832 14.2638 4.31108 14.2609 4.30391C14.2582 4.29661 14.2552 4.28938 14.2521 4.28221C14.2466 4.2701 14.2405 4.2582 14.2341 4.24655C14.2332 4.24465 14.2323 4.24276 14.2315 4.24087C14.2308 4.23983 14.2301 4.2388 14.2294 4.23777C14.2232 4.22686 14.2167 4.21617 14.2098 4.20573C14.2062 4.20032 14.2026 4.19498 14.1989 4.18971C14.1922 4.18035 14.1851 4.17121 14.1777 4.16232C14.1767 4.16111 14.1757 4.1599 14.1746 4.1587C14.1734 4.15716 14.1723 4.15559 14.171 4.15405C14.1698 4.15267 14.1686 4.15129 14.1674 4.14992C11.8878 1.40038 9.52982 -0.0237048 7.11718 0.000298475ZM7.12906 1.05863C9.03371 1.03971 11.0088 2.11623 13.0739 4.49925C11.0089 6.88197 9.03366 7.95675 7.12906 7.9378C5.228 7.91891 3.26483 6.8026 1.2395 4.49821C3.26483 2.19384 5.228 1.07755 7.12906 1.05863ZM7.15438 1.58832C5.55327 1.58832 4.24448 2.8971 4.24448 4.49821C4.24448 6.09932 5.55327 7.40811 7.15438 7.40811C8.7555 7.40811 10.0648 6.09932 10.0648 4.49821C10.0648 2.8971 8.7555 1.58832 7.15438 1.58832ZM7.15438 2.64665C8.18353 2.64665 9.00802 3.46906 9.00802 4.49821C9.00802 5.52735 8.18353 6.35185 7.15438 6.35185C6.12524 6.35185 5.30282 5.52735 5.30282 4.49821C5.30282 3.46906 6.12524 2.64665 7.15438 2.64665Z"/>
</svg>
