<svg width="42" height="40" viewBox="0 0 42 40" fill="none" xmlns="http://www.w3.org/2000/svg">
<path d="M5.25818 20C5.25818 28.5926 12.3897 35.5556 21.1889 35.5556C29.9888 35.5556 37.1197 28.592 37.1197 20C37.1197 11.4074 29.9882 4.44444 21.1889 4.44444C12.3891 4.44444 5.25818 11.408 5.25818 20ZM0.706543 20C0.706543 8.9543 9.87433 0 21.1889 0C32.501 0 41.6713 8.95188 41.6713 20C41.6713 31.0457 32.5035 40 21.1889 40C9.87681 40 0.706543 31.0481 0.706543 20ZM18.9131 17.7843V28.8824C18.9131 30.138 19.932 31.1111 21.1889 31.1111C22.4546 31.1111 23.4647 30.1133 23.4647 28.8824V17.7843C23.4647 16.5286 22.4458 15.5556 21.1889 15.5556C19.9233 15.5556 18.9131 16.5534 18.9131 17.7843ZM18.9131 11.1111C18.9131 12.347 19.932 13.3333 21.1889 13.3333C22.4546 13.3333 23.4647 12.3384 23.4647 11.1111C23.4647 9.87526 22.4458 8.88889 21.1889 8.88889C19.9233 8.88889 18.9131 9.88381 18.9131 11.1111Z" fill="#E83841"/>
</svg>
