<svg width="27" height="26" viewBox="0 0 27 26" fill="none" xmlns="http://www.w3.org/2000/svg">
<path d="M1.74176 13.1844L1.74205 13.1844L12.0162 13.1844H12.0163V13.2344C12.1147 13.2341 12.2122 13.2532 12.3032 13.2907C12.3942 13.3282 12.4768 13.3833 12.5464 13.4529C12.616 13.5224 12.6712 13.6051 12.7087 13.696C12.7462 13.7869 12.7654 13.8844 12.7651 13.9828L1.74176 13.1844ZM1.74176 13.1844C1.53092 13.1856 1.32917 13.2704 1.18075 13.4201C1.03235 13.5697 0.94937 13.7721 0.950004 13.9828M1.74176 13.1844L1 13.9828M0.950004 24.251C0.949371 24.4617 1.03235 24.6641 1.18075 24.8138C1.32917 24.9634 1.53092 25.0482 1.74176 25.0495H1.74205H12.0161L1 24.2511M0.950004 24.251C0.950004 24.251 0.950004 24.251 0.950004 24.2509L1 24.2511M0.950004 24.251V24.2511H1M0.950004 24.251V13.9828M1 24.2511V13.9828M0.950004 13.9828C0.950004 13.9829 0.950004 13.9829 0.950004 13.9829L1 13.9828M0.950004 13.9828V13.9828H1M12.8151 24.2509V13.9829L12.0163 24.9995C12.1147 24.9998 12.2122 24.9806 12.3032 24.9431C12.3942 24.9056 12.4768 24.8505 12.5464 24.7809C12.616 24.7114 12.6712 24.6288 12.7087 24.5378C12.7462 24.4469 12.7654 24.3494 12.7651 24.2511H12.8151V24.2509ZM2.54087 14.7811H11.2242V23.4594H2.54087V14.7811Z" fill="black" stroke="white" stroke-width="0.1"/>
<path d="M0.950004 1.74177H0.950004C0.951257 1.53093 1.03601 1.32919 1.18569 1.18077C1.33535 1.03236 1.53772 0.949377 1.74844 0.950004M0.950004 1.74177L1.74851 0.950004C1.74849 0.950004 1.74846 0.950004 1.74844 0.950004M0.950004 1.74177V1.74207M0.950004 1.74177V1.74207M1.74844 0.950004H12.0166M1.74844 0.950004H12.0166M12.0166 0.950004H12.0167V1L12.0166 0.950004ZM0.950004 1.74207V12.0162V1.74207ZM2.54675 2.54088H11.2251V11.2242H2.54675V2.54088Z" fill="black" stroke="white" stroke-width="0.1"/>
<path d="M14.9838 13.1844C14.8789 13.1841 14.7749 13.2045 14.6779 13.2445L26.0004 13.9828C26.0007 13.8844 25.9816 13.7869 25.9441 13.696C25.9066 13.6051 25.8515 13.5224 25.7819 13.4529C25.7124 13.3833 25.6297 13.3282 25.5388 13.2907C25.4479 13.2532 25.3504 13.2341 25.252 13.2344V13.1844H25.252H14.9838ZM14.9838 13.1844C14.9838 13.1844 14.9839 13.1844 14.9839 13.1844L14.9837 13.2344V13.1844H14.9838ZM26.0504 24.2509V13.9829L25.252 24.9995C25.3504 24.9998 25.4479 24.9806 25.5388 24.9431C25.6297 24.9056 25.7124 24.8505 25.7819 24.7809C25.8515 24.7114 25.9066 24.6288 25.9441 24.5378C25.9816 24.4469 26.0007 24.3494 26.0004 24.2511H26.0504V24.2509ZM14.9839 25.0495H25.2519L14.2354 24.2511C14.2351 24.3494 14.2542 24.4469 14.2917 24.5378C14.3292 24.6288 14.3843 24.7114 14.4539 24.7809C14.5234 24.8505 14.6061 24.9056 14.697 24.9431C14.7879 24.9806 14.8854 24.9998 14.9837 24.9995V25.0495H14.9839ZM14.1854 13.9828V24.251L14.2354 13.9828H14.1854V13.9828ZM15.7821 14.7811H24.4604V23.4594H15.7821V14.7811Z" fill="black" stroke="white" stroke-width="0.1"/>
<path d="M14.8962 3.8875C14.8027 3.88722 14.71 3.90545 14.6235 3.94114L23.0582 4.59973C23.0585 4.51269 23.0415 4.42646 23.0084 4.34599C22.9752 4.26552 22.9265 4.19241 22.865 4.13086C22.8034 4.06932 22.7304 4.02055 22.65 3.98736C22.5696 3.95418 22.4834 3.93723 22.3964 3.9375V3.8875H22.3963H14.8962ZM14.8962 3.8875C14.8963 3.8875 14.8963 3.8875 14.8963 3.8875L14.8962 3.9375V3.8875H14.8962ZM23.1082 12.0989V4.59989L22.3964 12.7613C22.4834 12.7616 22.5696 12.7446 22.65 12.7115C22.7304 12.6783 22.8034 12.6295 22.865 12.568C22.9265 12.5064 22.9752 12.4333 23.0084 12.3528C23.0415 12.2724 23.0585 12.1861 23.0582 12.0991H23.1082V12.0989ZM14.8963 12.8113H22.3962L14.2344 12.0991C14.2341 12.1861 14.251 12.2724 14.2842 12.3528C14.3174 12.4333 14.3661 12.5064 14.4276 12.568C14.4891 12.6295 14.5622 12.6783 14.6426 12.7115C14.723 12.7446 14.8092 12.7616 14.8962 12.7613V12.8113H14.8963ZM14.1844 4.59981V12.099L14.2344 4.59973H14.1844V4.59981ZM15.608 5.306H21.6846V11.3928H15.608V5.306Z" fill="black" stroke="white" stroke-width="0.1"/>
</svg>
