<svg width="25" height="26" viewBox="0 0 25 26" fill="none" xmlns="http://www.w3.org/2000/svg">
<path d="M12.4976 14.0743C8.53136 14.0743 5.30469 10.9173 5.30469 7.03686C5.30469 3.15693 8.53136 0 12.4976 0C16.4638 0 19.6904 3.15693 19.6904 7.03686C19.6904 10.9173 16.4638 14.0743 12.4976 14.0743ZM12.4976 1.91237C9.60936 1.91237 7.2593 4.21163 7.2593 7.03686C7.2593 9.86264 9.60936 12.1619 12.4976 12.1619C15.3858 12.1619 17.7358 9.86264 17.7358 7.03686C17.7358 4.21108 15.3858 1.91237 12.4976 1.91237Z" fill="#282828"/>
<path d="M0.977441 25.1665C0.867441 25.1665 0.755748 25.1483 0.646875 25.1091C0.13918 24.9308 -0.124821 24.3833 0.057949 23.8861C1.93924 18.7676 6.93947 15.3281 12.5004 15.3281C18.0608 15.3281 23.0605 18.7671 24.9423 23.8861C25.1245 24.3828 24.8605 24.9308 24.3534 25.1091C23.8457 25.2879 23.285 25.0296 23.1022 24.5329C21.499 20.1717 17.2389 17.2405 12.5004 17.2405C7.76194 17.2405 3.50069 20.1717 1.8975 24.5329C1.75365 24.9231 1.37796 25.1665 0.977441 25.1665Z" fill="#282828"/>
</svg>
