<svg width="25" height="25" viewBox="0 0 25 25" fill="none" xmlns="http://www.w3.org/2000/svg">
<path d="M20.491 0.724741L20.4909 0.724699C20.1084 0.342171 19.597 0.127841 19.0563 0.127841C18.5152 0.127841 18.0042 0.339331 17.6221 0.724352L17.6216 0.724779L14.0373 4.30238L14.0372 4.30246M20.491 0.724741L13.9469 7.26784C13.5376 6.85852 13.3126 6.31796 13.3126 5.73991C13.3126 5.16498 13.5407 4.61817 13.9469 4.21197L14.0372 4.30246M20.491 0.724741L23.8189 4.04912M20.491 0.724741L23.8189 4.04912M14.0372 4.30246C13.6549 4.68483 13.4404 5.19916 13.4404 5.73991C13.4404 6.28386 13.6518 6.79196 14.0373 7.17744L14.0374 7.17749L16.8374 9.98026L16.8986 10.0415L16.8644 10.121C16.2202 11.622 15.2945 12.9857 14.1374 14.1386C12.979 15.3031 11.6248 16.2215 10.1227 16.8715L10.0429 16.906L9.98148 16.8445L7.18152 14.0418C7.1815 14.0418 7.18148 14.0418 7.18146 14.0417C6.79889 13.6592 6.28755 13.4449 5.7469 13.4449H5.74643C5.47982 13.4439 5.2157 13.4962 4.96954 13.5986C4.72338 13.7009 4.50014 13.8514 4.31289 14.0412L4.31217 14.0419L0.724769 17.6195C0.724743 17.6195 0.724718 17.6195 0.724692 17.6195C0.342304 18.0019 0.127841 18.5162 0.127841 19.057C0.127841 19.6009 0.339236 20.109 0.724769 20.4945L4.04978 23.8191C4.71961 24.4888 5.64337 24.8722 6.59065 24.8722C6.78703 24.8722 6.97664 24.8571 7.169 24.824L7.16989 24.8239C11.2779 24.1476 15.3606 21.9591 18.6597 18.6635C21.9556 15.3618 24.1414 11.2796 24.824 7.16878L24.824 7.1686C25.014 6.03512 24.6341 4.86717 23.8189 4.04912M14.0372 4.30246L23.8189 4.04912M4.22189 13.9514L0.634378 17.5291C0.228126 17.9353 0 18.4821 0 19.057C0 19.635 0.225001 20.1756 0.634378 20.5849L3.95939 23.9095C4.65314 24.6032 5.6094 25 6.59065 25C6.79378 25 6.99066 24.9844 7.19066 24.95C11.3282 24.2688 15.4344 22.066 18.7501 18.7539C22.0626 15.4356 24.2626 11.3298 24.9501 7.18973C25.147 6.01487 24.7532 4.80565 23.9095 3.95888L4.22189 13.9514ZM4.22189 13.9514C4.42109 13.7495 4.65858 13.5894 4.92044 13.4805M4.22189 13.9514L4.92044 13.4805M4.92044 13.4805C5.18231 13.3716 5.46328 13.316 5.7469 13.3171L4.92044 13.4805ZM5.45338 22.4126L5.4538 22.413C5.81942 22.7752 6.33527 22.9458 6.83964 22.8608C10.5538 22.2466 14.2492 20.251 17.2498 17.2508C20.2505 14.2505 22.2462 10.5525 22.8606 6.83898C22.9457 6.33451 22.775 5.81839 22.4092 5.45265L19.1436 2.18744L19.0532 2.09702L18.9628 2.18748L15.5003 5.65267L15.4099 5.74311L15.5003 5.83347L19.2173 9.54692L18.9958 10.1449L18.9957 10.1453C18.2503 12.1745 17.0726 14.0175 15.544 15.5463C14.0155 17.0752 12.1727 18.2535 10.1434 18.9995L10.1431 18.9996L9.54502 19.2211L5.83112 15.5015L5.74068 15.4109L5.65022 15.5014L2.1877 18.9666L2.09737 19.057L2.18774 19.1474L5.45338 22.4126Z" fill="#282828" stroke="white" stroke-width="0.255682"/>
</svg>
