<svg width="25" height="26" viewBox="0 0 25 26" fill="none" xmlns="http://www.w3.org/2000/svg">
<path d="M12.5 0.5C5.61111 0.5 0 6.11111 0 13C0 19.8889 5.61111 25.5 12.5 25.5C19.3889 25.5 25 19.8889 25 13C25 6.11111 19.3889 0.5 12.5 0.5ZM21.8611 18.4167C21.2778 18.1944 20.5 18.0278 19.4444 17.8611C19.1111 17.8056 18.75 17.7778 18.3889 17.7222C18.6667 16.4167 18.8333 15.0278 18.8611 13.5278H23.3056C23.2222 15.3333 22.7222 16.9722 21.8611 18.4167ZM13.8056 23.75C13.5556 23.7778 13.3056 23.8056 13.0556 23.8056V18.5833C14.5556 18.5833 15.8611 18.6389 17 18.75C16.2778 21.1667 15.1389 23 13.8056 23.75ZM8 18.7222C9.13889 18.6389 10.4444 18.5833 11.9444 18.5556V23.7778C11.6944 23.7778 11.4444 23.75 11.1944 23.7222C9.86111 23 8.72222 21.1667 8 18.7222ZM1.69444 13.5556H6.13889C6.16667 15.0556 6.33333 16.4444 6.61111 17.75C6.25 17.7778 5.88889 17.8333 5.55556 17.8889C4.5 18.0278 3.72222 18.2222 3.13889 18.4444C2.27778 16.9722 1.77778 15.3333 1.69444 13.5556ZM3.13889 7.58333C3.72222 7.80556 4.5 7.97222 5.55556 8.13889C5.88889 8.19444 6.25 8.22222 6.61111 8.27778C6.33333 9.58333 6.16667 10.9722 6.13889 12.4722H1.69444C1.77778 10.6667 2.27778 9.02778 3.13889 7.58333ZM11.1944 2.25C11.4444 2.22222 11.6944 2.19444 11.9444 2.19444V7.41667C10.4444 7.41667 9.13889 7.36111 8 7.25C8.72222 4.83333 9.86111 3 11.1944 2.25ZM17 7.27778C15.8611 7.36111 14.5556 7.41667 13.0556 7.44444V2.19444C13.3056 2.19444 13.5556 2.22222 13.8056 2.25C15.1389 3 16.2778 4.83333 17 7.27778ZM13.0556 8.52778C14.5556 8.52778 16 8.44444 17.2778 8.36111C17.5556 9.61111 17.75 11 17.7778 12.4444H13.0556V8.52778ZM11.9444 8.52778V12.4444H7.22222C7.25 11 7.44444 9.61111 7.72222 8.36111C9 8.44444 10.4444 8.52778 11.9444 8.52778ZM7.22222 13.5556H11.9444V17.4722C10.4444 17.4722 9 17.5556 7.72222 17.6389C7.44444 16.3889 7.27778 15 7.22222 13.5556ZM13.0556 17.4722V13.5556H17.7778C17.75 15 17.5556 16.3889 17.2778 17.6389C16 17.5556 14.5556 17.4722 13.0556 17.4722ZM18.8889 12.4444C18.8611 10.9444 18.6944 9.55556 18.4167 8.25C18.7778 8.22222 19.1389 8.16667 19.4722 8.11111C20.5278 7.97222 21.3056 7.77778 21.8889 7.55556C22.7222 9 23.25 10.6667 23.3333 12.4167H18.8889V12.4444ZM21.25 6.61111C20.6111 6.80556 19.5833 7 18.1389 7.16667C17.6389 5.38889 16.9167 3.86111 16.0278 2.77778C18.1389 3.5 19.9444 4.86111 21.25 6.61111ZM8.97222 2.75C8.08333 3.86111 7.36111 5.36111 6.86111 7.13889C5.41667 7 4.38889 6.80556 3.75 6.58333C5.05556 4.86111 6.86111 3.5 8.97222 2.75ZM3.75 19.3889C4.38889 19.1944 5.41667 19 6.86111 18.8333C7.36111 20.6111 8.08333 22.1389 8.97222 23.2222C6.86111 22.5 5.05556 21.1389 3.75 19.3889ZM16.0278 23.25C16.9167 22.1389 17.6389 20.6389 18.1389 18.8611C19.5833 19 20.6111 19.1944 21.25 19.4167C19.9444 21.1389 18.1389 22.5 16.0278 23.25Z" fill="#282828"/>
</svg>
