<svg width="49" height="48" viewBox="0 0 49 48" fill="none" xmlns="http://www.w3.org/2000/svg">
<path d="M24.1981 25.3017C20.7314 25.3017 17.9111 22.5424 17.9111 19.1506C17.9111 15.7593 20.7314 13 24.1981 13C27.6648 13 30.4851 15.7593 30.4851 19.1506C30.4851 22.5424 27.6648 25.3017 24.1981 25.3017ZM24.1981 14.6715C21.6737 14.6715 19.6196 16.6812 19.6196 19.1506C19.6196 21.6205 21.6737 23.6302 24.1981 23.6302C26.7226 23.6302 28.7766 21.6205 28.7766 19.1506C28.7766 16.6807 26.7226 14.6715 24.1981 14.6715Z" fill="white"/>
<path d="M14.1288 34.9977C14.0326 34.9977 13.935 34.9818 13.8398 34.9475C13.3961 34.7917 13.1653 34.3132 13.3251 33.8785C14.9694 29.4048 19.3399 26.3984 24.2005 26.3984C29.0606 26.3984 33.4306 29.4043 35.0754 33.8785C35.2347 34.3127 35.0039 34.7917 34.5607 34.9475C34.1169 35.1038 33.6268 34.8781 33.467 34.4439C32.0658 30.632 28.3422 28.07 24.2005 28.07C20.0588 28.07 16.3342 30.632 14.9329 34.4439C14.8072 34.785 14.4788 34.9977 14.1288 34.9977Z" fill="white"/>
</svg>
