<svg width="18" height="19" viewBox="0 0 18 19" fill="none" xmlns="http://www.w3.org/2000/svg">
<path d="M8.98895 10.9102C6.13677 10.9102 3.81641 8.63995 3.81641 5.84942C3.81641 3.05928 6.13677 0.789062 8.98895 0.789062C11.8411 0.789062 14.1615 3.05928 14.1615 5.84942C14.1615 8.63995 11.8411 10.9102 8.98895 10.9102ZM8.98895 2.16429C6.91198 2.16429 5.22201 3.81773 5.22201 5.84942C5.22201 7.88149 6.91198 9.53494 8.98895 9.53494C11.0659 9.53494 12.7559 7.88149 12.7559 5.84942C12.7559 3.81734 11.0659 2.16429 8.98895 2.16429Z" fill="white"/>
<path d="M0.702899 18.6609C0.623795 18.6609 0.543474 18.6478 0.465182 18.6196C0.100087 18.4914 -0.0897616 18.0977 0.0416723 17.7401C1.39455 14.0594 4.99032 11.5859 8.98932 11.5859C12.9879 11.5859 16.5833 14.059 17.9366 17.7401C18.0676 18.0973 17.8777 18.4914 17.5131 18.6196C17.148 18.7482 16.7447 18.5625 16.6133 18.2053C15.4604 15.0691 12.3969 12.9612 8.98932 12.9612C5.58177 12.9612 2.51742 15.0691 1.36453 18.2053C1.26109 18.4859 0.990917 18.6609 0.702899 18.6609Z" fill="white"/>
</svg>
