<svg width="48" height="48" viewBox="0 0 48 48" fill="none" xmlns="http://www.w3.org/2000/svg">
<path d="M34.1024 19.3407H28.9986V16.748C28.9986 14.6686 27.2622 13 25.1576 13H22.8687C20.7378 13 19.0014 14.6686 19.0014 16.748V19.3407H13.8976C13.161 19.3407 12.4506 19.6744 12.0034 20.2905C11.5299 20.9067 11.372 21.7281 11.6088 22.4982L14.1081 33.2544V33.3057C14.4238 34.3326 15.3446 35 16.3969 35H31.5768C32.6291 35 33.5499 34.3069 33.8656 33.3057L36.3912 22.4982C36.628 21.7538 36.4701 20.9323 35.9966 20.2905C35.5494 19.7001 34.839 19.3407 34.1024 19.3407ZM20.2642 16.748C20.2642 15.3617 21.4218 14.2322 22.8424 14.2322H25.1313C26.5519 14.2322 27.7095 15.3617 27.7095 16.748V19.3407H20.2642V16.748ZM31.5768 33.7421C25.6589 33.7421 22.341 33.7421 16.4232 33.7421C15.9497 33.7421 15.5287 33.4341 15.3709 32.9463C15.3709 32.9463 15.6128 33.7484 16.4232 33.7421C22.3111 33.6964 25.6889 33.6964 31.5768 33.7421C32.4204 33.7487 32.6554 32.9463 32.6554 32.9463C32.4976 33.4341 32.0767 33.7421 31.5768 33.7421ZM35.1547 22.1645L33.1553 30.7643L32.6554 32.9463C32.6554 32.9463 32.4204 33.7487 31.5768 33.7421C25.6889 33.6964 22.3111 33.6964 16.4232 33.7421C15.6128 33.7484 15.3709 32.9463 15.3709 32.9463L12.8453 22.1902V22.1389C12.7137 21.7538 12.7927 21.3431 13.0294 21.0093C13.2399 20.727 13.5556 20.5729 13.8976 20.5729H19.0014V23.7305H20.2642V20.5986H27.7095V23.7305H28.9986V20.5986H34.1024C34.4444 20.5986 34.7601 20.7526 34.9706 21.035C35.2073 21.3431 35.2863 21.7795 35.1547 22.1645Z" fill="white"/>
</svg>
