<svg width="25" height="22" viewBox="0 0 25 22" fill="none" xmlns="http://www.w3.org/2000/svg">
<path d="M22.6768 6.27907H17.7772V3.80416C17.7772 1.81933 16.1103 0.226562 14.0898 0.226562H11.8925C9.84677 0.226562 8.17988 1.81933 8.17988 3.80416V6.27907H3.28022C2.57305 6.27907 1.89114 6.59762 1.46179 7.18572C1.00718 7.77382 0.855642 8.55795 1.08295 9.29307L3.48226 19.5603V19.6093C3.78534 20.5895 4.6693 21.2266 5.67954 21.2266H20.2522C21.2625 21.2266 22.1464 20.565 22.4495 19.6093L24.8741 9.29307C25.1014 8.58245 24.9499 7.79832 24.4952 7.18572C24.0659 6.62213 23.384 6.27907 22.6768 6.27907ZM9.39217 3.80416C9.39217 2.48094 10.5034 1.40276 11.8673 1.40276H14.0645C15.4283 1.40276 16.5396 2.48094 16.5396 3.80416V6.27907H9.39217V3.80416ZM20.2522 20.0259C14.5711 20.0259 11.3859 20.0259 5.70479 20.0259C5.25018 20.0259 4.84609 19.7318 4.69455 19.2662C4.69455 19.2662 4.92677 20.0319 5.70479 20.0259C11.3571 19.9822 14.5999 19.9822 20.2522 20.0259C21.0621 20.0321 21.2877 19.2662 21.2877 19.2662C21.1362 19.7318 20.7321 20.0259 20.2522 20.0259ZM23.6871 8.97452L21.7676 17.1834L21.2877 19.2662C21.2877 19.2662 21.0621 20.0321 20.2522 20.0259C14.5999 19.9822 11.3571 19.9822 5.70479 20.0259C4.92677 20.0319 4.69455 19.2662 4.69455 19.2662L2.26998 8.99902V8.95001C2.1437 8.58245 2.21947 8.19039 2.44677 7.87184C2.64882 7.60229 2.95189 7.45527 3.28022 7.45527H8.17988V10.4693H9.39217V7.47977H16.5396V10.4693H17.7772V7.47977H22.6768C23.0051 7.47977 23.3082 7.6268 23.5103 7.89634C23.7376 8.19039 23.8133 8.60696 23.6871 8.97452Z" fill="white"/>
</svg>
