<svg width="27" height="26" viewBox="0 0 27 26" fill="none" xmlns="http://www.w3.org/2000/svg">
<mask id="path-1-outside-1_1356_4359" maskUnits="userSpaceOnUse" x="0" y="12.2344" width="13" height="13" fill="black">
<rect fill="white" y="12.2344" width="13" height="13"/>
<path fill-rule="evenodd" clip-rule="evenodd" d="M1.74205 13.2344C1.54444 13.2356 1.35536 13.315 1.21626 13.4553C1.07716 13.5956 0.99939 13.7853 1 13.9828V24.2511C0.999391 24.4486 1.07716 24.6383 1.21626 24.7786C1.35536 24.9188 1.54444 24.9983 1.74205 24.9995H12.0163C12.1147 24.9998 12.2122 24.9806 12.3032 24.9431C12.3942 24.9056 12.4768 24.8505 12.5464 24.7809C12.616 24.7114 12.6712 24.6288 12.7087 24.5378C12.7462 24.4469 12.7654 24.3494 12.7651 24.2511V13.9828C12.7654 13.8844 12.7462 13.7869 12.7087 13.696C12.6712 13.6051 12.616 13.5224 12.5464 13.4529C12.4768 13.3833 12.3942 13.3282 12.3032 13.2907C12.2122 13.2532 12.1147 13.2341 12.0163 13.2344H1.74205ZM2.49087 14.7311H11.2742V23.5094H2.49087V14.7311Z"/>
</mask>
<path fill-rule="evenodd" clip-rule="evenodd" d="M1.74205 13.2344C1.54444 13.2356 1.35536 13.315 1.21626 13.4553C1.07716 13.5956 0.99939 13.7853 1 13.9828V24.2511C0.999391 24.4486 1.07716 24.6383 1.21626 24.7786C1.35536 24.9188 1.54444 24.9983 1.74205 24.9995H12.0163C12.1147 24.9998 12.2122 24.9806 12.3032 24.9431C12.3942 24.9056 12.4768 24.8505 12.5464 24.7809C12.616 24.7114 12.6712 24.6288 12.7087 24.5378C12.7462 24.4469 12.7654 24.3494 12.7651 24.2511V13.9828C12.7654 13.8844 12.7462 13.7869 12.7087 13.696C12.6712 13.6051 12.616 13.5224 12.5464 13.4529C12.4768 13.3833 12.3942 13.3282 12.3032 13.2907C12.2122 13.2532 12.1147 13.2341 12.0163 13.2344H1.74205ZM2.49087 14.7311H11.2742V23.5094H2.49087V14.7311Z" fill="black"/>
<path fill-rule="evenodd" clip-rule="evenodd" d="M1.74205 13.2344C1.54444 13.2356 1.35536 13.315 1.21626 13.4553C1.07716 13.5956 0.99939 13.7853 1 13.9828V24.2511C0.999391 24.4486 1.07716 24.6383 1.21626 24.7786C1.35536 24.9188 1.54444 24.9983 1.74205 24.9995H12.0163C12.1147 24.9998 12.2122 24.9806 12.3032 24.9431C12.3942 24.9056 12.4768 24.8505 12.5464 24.7809C12.616 24.7114 12.6712 24.6288 12.7087 24.5378C12.7462 24.4469 12.7654 24.3494 12.7651 24.2511V13.9828C12.7654 13.8844 12.7462 13.7869 12.7087 13.696C12.6712 13.6051 12.616 13.5224 12.5464 13.4529C12.4768 13.3833 12.3942 13.3282 12.3032 13.2907C12.2122 13.2532 12.1147 13.2341 12.0163 13.2344H1.74205ZM2.49087 14.7311H11.2742V23.5094H2.49087V14.7311Z" stroke="white" stroke-width="0.2" mask="url(#path-1-outside-1_1356_4359)"/>
<mask id="path-2-outside-2_1356_4359" maskUnits="userSpaceOnUse" x="0" y="0" width="13" height="13" fill="black">
<rect fill="white" width="13" height="13"/>
<path fill-rule="evenodd" clip-rule="evenodd" d="M1.74836 1C1.55086 0.999397 1.36118 1.07717 1.2209 1.21627C1.08061 1.35538 1.00118 1.54446 1 1.74207V12.0163C0.9997 12.1147 1.01885 12.2122 1.05635 12.3032C1.09385 12.3942 1.14896 12.4768 1.21851 12.5464C1.28806 12.616 1.37068 12.6712 1.46162 12.7087C1.55255 12.7462 1.65 12.7654 1.74836 12.7651H12.0167C12.1151 12.7654 12.2125 12.7462 12.3034 12.7087C12.3944 12.6712 12.477 12.616 12.5466 12.5464C12.6161 12.4768 12.6712 12.3942 12.7087 12.3032C12.7462 12.2122 12.7654 12.1147 12.7651 12.0163V1.74207C12.7639 1.54445 12.6845 1.35536 12.5442 1.21626C12.4039 1.07716 12.2142 0.999388 12.0167 1H1.74836ZM2.49675 2.49088H11.2751V11.2742H2.49675V2.49088Z"/>
</mask>
<path fill-rule="evenodd" clip-rule="evenodd" d="M1.74836 1C1.55086 0.999397 1.36118 1.07717 1.2209 1.21627C1.08061 1.35538 1.00118 1.54446 1 1.74207V12.0163C0.9997 12.1147 1.01885 12.2122 1.05635 12.3032C1.09385 12.3942 1.14896 12.4768 1.21851 12.5464C1.28806 12.616 1.37068 12.6712 1.46162 12.7087C1.55255 12.7462 1.65 12.7654 1.74836 12.7651H12.0167C12.1151 12.7654 12.2125 12.7462 12.3034 12.7087C12.3944 12.6712 12.477 12.616 12.5466 12.5464C12.6161 12.4768 12.6712 12.3942 12.7087 12.3032C12.7462 12.2122 12.7654 12.1147 12.7651 12.0163V1.74207C12.7639 1.54445 12.6845 1.35536 12.5442 1.21626C12.4039 1.07716 12.2142 0.999388 12.0167 1H1.74836ZM2.49675 2.49088H11.2751V11.2742H2.49675V2.49088Z" fill="black"/>
<path fill-rule="evenodd" clip-rule="evenodd" d="M1.74836 1C1.55086 0.999397 1.36118 1.07717 1.2209 1.21627C1.08061 1.35538 1.00118 1.54446 1 1.74207V12.0163C0.9997 12.1147 1.01885 12.2122 1.05635 12.3032C1.09385 12.3942 1.14896 12.4768 1.21851 12.5464C1.28806 12.616 1.37068 12.6712 1.46162 12.7087C1.55255 12.7462 1.65 12.7654 1.74836 12.7651H12.0167C12.1151 12.7654 12.2125 12.7462 12.3034 12.7087C12.3944 12.6712 12.477 12.616 12.5466 12.5464C12.6161 12.4768 12.6712 12.3942 12.7087 12.3032C12.7462 12.2122 12.7654 12.1147 12.7651 12.0163V1.74207C12.7639 1.54445 12.6845 1.35536 12.5442 1.21626C12.4039 1.07716 12.2142 0.999388 12.0167 1H1.74836ZM2.49675 2.49088H11.2751V11.2742H2.49675V2.49088Z" stroke="white" stroke-width="0.2" mask="url(#path-2-outside-2_1356_4359)"/>
<mask id="path-3-outside-3_1356_4359" maskUnits="userSpaceOnUse" x="13.2354" y="12.2344" width="13" height="13" fill="black">
<rect fill="white" x="13.2354" y="12.2344" width="13" height="13"/>
<path fill-rule="evenodd" clip-rule="evenodd" d="M14.9837 13.2344C14.8854 13.2341 14.7879 13.2532 14.697 13.2907C14.6061 13.3282 14.5234 13.3833 14.4539 13.4529C14.3843 13.5224 14.3292 13.6051 14.2917 13.696C14.2542 13.7869 14.2351 13.8844 14.2354 13.9828V24.2511C14.2351 24.3494 14.2542 24.4469 14.2917 24.5378C14.3292 24.6288 14.3843 24.7114 14.4539 24.7809C14.5234 24.8505 14.6061 24.9056 14.697 24.9431C14.7879 24.9806 14.8854 24.9998 14.9837 24.9995H25.252C25.3504 24.9998 25.4479 24.9806 25.5388 24.9431C25.6297 24.9056 25.7124 24.8505 25.7819 24.7809C25.8515 24.7114 25.9066 24.6288 25.9441 24.5378C25.9816 24.4469 26.0007 24.3494 26.0004 24.2511V13.9828C26.0007 13.8844 25.9816 13.7869 25.9441 13.696C25.9066 13.6051 25.8515 13.5224 25.7819 13.4529C25.7124 13.3833 25.6297 13.3282 25.5388 13.2907C25.4479 13.2532 25.3504 13.2341 25.252 13.2344H14.9837ZM15.7321 14.7311H24.5104V23.5094H15.7321V14.7311Z"/>
</mask>
<path fill-rule="evenodd" clip-rule="evenodd" d="M14.9837 13.2344C14.8854 13.2341 14.7879 13.2532 14.697 13.2907C14.6061 13.3282 14.5234 13.3833 14.4539 13.4529C14.3843 13.5224 14.3292 13.6051 14.2917 13.696C14.2542 13.7869 14.2351 13.8844 14.2354 13.9828V24.2511C14.2351 24.3494 14.2542 24.4469 14.2917 24.5378C14.3292 24.6288 14.3843 24.7114 14.4539 24.7809C14.5234 24.8505 14.6061 24.9056 14.697 24.9431C14.7879 24.9806 14.8854 24.9998 14.9837 24.9995H25.252C25.3504 24.9998 25.4479 24.9806 25.5388 24.9431C25.6297 24.9056 25.7124 24.8505 25.7819 24.7809C25.8515 24.7114 25.9066 24.6288 25.9441 24.5378C25.9816 24.4469 26.0007 24.3494 26.0004 24.2511V13.9828C26.0007 13.8844 25.9816 13.7869 25.9441 13.696C25.9066 13.6051 25.8515 13.5224 25.7819 13.4529C25.7124 13.3833 25.6297 13.3282 25.5388 13.2907C25.4479 13.2532 25.3504 13.2341 25.252 13.2344H14.9837ZM15.7321 14.7311H24.5104V23.5094H15.7321V14.7311Z" fill="black"/>
<path fill-rule="evenodd" clip-rule="evenodd" d="M14.9837 13.2344C14.8854 13.2341 14.7879 13.2532 14.697 13.2907C14.6061 13.3282 14.5234 13.3833 14.4539 13.4529C14.3843 13.5224 14.3292 13.6051 14.2917 13.696C14.2542 13.7869 14.2351 13.8844 14.2354 13.9828V24.2511C14.2351 24.3494 14.2542 24.4469 14.2917 24.5378C14.3292 24.6288 14.3843 24.7114 14.4539 24.7809C14.5234 24.8505 14.6061 24.9056 14.697 24.9431C14.7879 24.9806 14.8854 24.9998 14.9837 24.9995H25.252C25.3504 24.9998 25.4479 24.9806 25.5388 24.9431C25.6297 24.9056 25.7124 24.8505 25.7819 24.7809C25.8515 24.7114 25.9066 24.6288 25.9441 24.5378C25.9816 24.4469 26.0007 24.3494 26.0004 24.2511V13.9828C26.0007 13.8844 25.9816 13.7869 25.9441 13.696C25.9066 13.6051 25.8515 13.5224 25.7819 13.4529C25.7124 13.3833 25.6297 13.3282 25.5388 13.2907C25.4479 13.2532 25.3504 13.2341 25.252 13.2344H14.9837ZM15.7321 14.7311H24.5104V23.5094H15.7321V14.7311Z" stroke="white" stroke-width="0.2" mask="url(#path-3-outside-3_1356_4359)"/>
<mask id="path-4-outside-4_1356_4359" maskUnits="userSpaceOnUse" x="13.2344" y="2.9375" width="10" height="10" fill="black">
<rect fill="white" x="13.2344" y="2.9375" width="10" height="10"/>
<path fill-rule="evenodd" clip-rule="evenodd" d="M14.8962 3.9375C14.8092 3.93723 14.723 3.95418 14.6426 3.98736C14.5622 4.02055 14.4891 4.06932 14.4276 4.13086C14.3661 4.19241 14.3174 4.26552 14.2842 4.34599C14.251 4.42646 14.2341 4.51269 14.2344 4.59973V12.0991C14.2341 12.1861 14.251 12.2724 14.2842 12.3528C14.3174 12.4333 14.3661 12.5064 14.4276 12.568C14.4891 12.6295 14.5622 12.6783 14.6426 12.7115C14.723 12.7446 14.8092 12.7616 14.8962 12.7613H22.3964C22.4834 12.7616 22.5696 12.7446 22.65 12.7115C22.7304 12.6783 22.8034 12.6295 22.865 12.568C22.9265 12.5064 22.9752 12.4333 23.0084 12.3528C23.0415 12.2724 23.0585 12.1861 23.0582 12.0991V4.59973C23.0585 4.51269 23.0415 4.42646 23.0084 4.34599C22.9752 4.26552 22.9265 4.19241 22.865 4.13086C22.8034 4.06932 22.7304 4.02055 22.65 3.98736C22.5696 3.95418 22.4834 3.93723 22.3964 3.9375H14.8962ZM15.558 5.256H21.7346V11.4428H15.558V5.256Z"/>
</mask>
<path fill-rule="evenodd" clip-rule="evenodd" d="M14.8962 3.9375C14.8092 3.93723 14.723 3.95418 14.6426 3.98736C14.5622 4.02055 14.4891 4.06932 14.4276 4.13086C14.3661 4.19241 14.3174 4.26552 14.2842 4.34599C14.251 4.42646 14.2341 4.51269 14.2344 4.59973V12.0991C14.2341 12.1861 14.251 12.2724 14.2842 12.3528C14.3174 12.4333 14.3661 12.5064 14.4276 12.568C14.4891 12.6295 14.5622 12.6783 14.6426 12.7115C14.723 12.7446 14.8092 12.7616 14.8962 12.7613H22.3964C22.4834 12.7616 22.5696 12.7446 22.65 12.7115C22.7304 12.6783 22.8034 12.6295 22.865 12.568C22.9265 12.5064 22.9752 12.4333 23.0084 12.3528C23.0415 12.2724 23.0585 12.1861 23.0582 12.0991V4.59973C23.0585 4.51269 23.0415 4.42646 23.0084 4.34599C22.9752 4.26552 22.9265 4.19241 22.865 4.13086C22.8034 4.06932 22.7304 4.02055 22.65 3.98736C22.5696 3.95418 22.4834 3.93723 22.3964 3.9375H14.8962ZM15.558 5.256H21.7346V11.4428H15.558V5.256Z" fill="black"/>
<path fill-rule="evenodd" clip-rule="evenodd" d="M14.8962 3.9375C14.8092 3.93723 14.723 3.95418 14.6426 3.98736C14.5622 4.02055 14.4891 4.06932 14.4276 4.13086C14.3661 4.19241 14.3174 4.26552 14.2842 4.34599C14.251 4.42646 14.2341 4.51269 14.2344 4.59973V12.0991C14.2341 12.1861 14.251 12.2724 14.2842 12.3528C14.3174 12.4333 14.3661 12.5064 14.4276 12.568C14.4891 12.6295 14.5622 12.6783 14.6426 12.7115C14.723 12.7446 14.8092 12.7616 14.8962 12.7613H22.3964C22.4834 12.7616 22.5696 12.7446 22.65 12.7115C22.7304 12.6783 22.8034 12.6295 22.865 12.568C22.9265 12.5064 22.9752 12.4333 23.0084 12.3528C23.0415 12.2724 23.0585 12.1861 23.0582 12.0991V4.59973C23.0585 4.51269 23.0415 4.42646 23.0084 4.34599C22.9752 4.26552 22.9265 4.19241 22.865 4.13086C22.8034 4.06932 22.7304 4.02055 22.65 3.98736C22.5696 3.95418 22.4834 3.93723 22.3964 3.9375H14.8962ZM15.558 5.256H21.7346V11.4428H15.558V5.256Z" stroke="white" stroke-width="0.2" mask="url(#path-4-outside-4_1356_4359)"/>
</svg>
