<svg width="49" height="48" viewBox="0 0 49 48" fill="none" xmlns="http://www.w3.org/2000/svg">
<path d="M14.9228 24.5672L14.9231 24.5672L23.5531 24.5672L14.9228 24.5672ZM14.9228 24.5672C14.7436 24.5683 14.5721 24.6403 14.446 24.7675C14.3198 24.8948 14.2493 25.0668 14.2498 25.2459M14.9228 24.5672L14.2498 25.2459M24.2322 33.8709L24.2322 33.8708V25.246L23.5532 34.4995C23.6358 34.4998 23.7177 34.4837 23.7942 34.4522C23.8706 34.4207 23.94 34.3744 23.9985 34.316C24.057 34.2576 24.1033 34.1882 24.1348 34.1118C24.1663 34.0354 24.1824 33.9535 24.1822 33.8709H24.2322ZM24.2322 33.8709C24.2324 33.9601 24.215 34.0484 24.181 34.1309C24.147 34.2133 24.097 34.2883 24.0338 34.3514C23.9707 34.4144 23.8957 34.4644 23.8132 34.4984C23.7307 34.5324 23.6423 34.5498 23.553 34.5495M24.2322 33.8709L23.553 34.5495M23.553 34.5495L23.5532 34.4997V34.5495H23.553ZM14.2498 25.2459V25.2458H14.2998L14.2498 25.246C14.2498 25.2459 14.2498 25.2459 14.2498 25.2459ZM15.6021 25.9244H22.8799V33.198H15.6021V25.9244Z" fill="white" stroke="white" stroke-width="0.1"/>
<path d="M14.2498 14.123H14.2498C14.2509 13.9438 14.3229 13.7723 14.4501 13.6462C14.5774 13.52 14.7494 13.4495 14.9285 13.45M14.2498 14.123L14.9286 13.45C14.9285 13.45 14.9285 13.45 14.9285 13.45M14.2498 14.123V14.1233M14.2498 14.123V14.1233M14.9285 13.45H23.5534M14.9285 13.45H23.5534M23.5534 13.45H23.5535V13.5L23.5534 13.45ZM14.2498 14.1233V22.7533V14.1233ZM15.607 14.8023H22.8806V22.0801H15.607V14.8023Z" fill="white" stroke="white" stroke-width="0.1"/>
<path d="M26.0467 24.5672C25.9575 24.5669 25.8691 24.5843 25.7867 24.6183L35.3003 25.2458C35.3006 25.1632 35.2845 25.0813 35.253 25.0049C35.2215 24.9286 35.1752 24.8592 35.1168 24.8007C35.0583 24.7423 34.9889 24.696 34.9126 24.6645C34.8362 24.633 34.7543 24.6169 34.6717 24.6172V24.5672H34.6716H26.0467ZM26.0467 24.5672C26.0467 24.5672 26.0467 24.5672 26.0468 24.5672L26.0466 24.6172V24.5672H26.0467ZM34.6717 34.5495V34.4995L25.418 33.8709C25.4177 33.9535 25.4338 34.0354 25.4653 34.1118C25.4968 34.1882 25.5431 34.2576 25.6015 34.316C25.6599 34.3744 25.7293 34.4207 25.8057 34.4522C25.8821 34.4837 25.964 34.4998 26.0466 34.4995V34.5495H26.0468H34.6715H34.6717ZM25.368 25.2459V33.8708V25.2459ZM35.3503 33.8708V25.246V33.8708ZM26.7252 25.9244H33.9987V33.198H26.7252V25.9244Z" fill="white" stroke="white" stroke-width="0.1"/>
<path d="M25.9739 15.9188C25.8943 15.9185 25.8154 15.934 25.7418 15.9644L32.2738 23.3805C32.3469 23.3807 32.4193 23.3665 32.4868 23.3386C32.5544 23.3108 32.6158 23.2698 32.6674 23.2181C32.7191 23.1664 32.76 23.105 32.7879 23.0374C32.8157 22.9698 32.83 22.8974 32.8297 22.8243V16.525C32.83 16.4519 32.8157 16.3795 32.7879 16.3119C32.76 16.2443 32.7191 16.1829 32.6674 16.1312C32.6158 16.0795 32.5544 16.0385 32.4868 16.0106C32.4193 15.9828 32.3469 15.9685 32.2738 15.9688V15.9188H32.2738H25.9739ZM25.9739 15.9188C25.974 15.9188 25.974 15.9188 25.974 15.9188L25.9739 15.9688M25.9739 15.9188H25.9739V15.9688M25.9739 15.9688C25.9008 15.9685 25.8284 15.9828 25.7609 16.0106C25.6933 16.0385 25.632 16.0795 25.5803 16.1312C25.5286 16.1829 25.4877 16.2443 25.4598 16.3119C25.432 16.3795 25.4177 16.4519 25.418 16.525V22.8243C25.4177 22.8974 25.432 22.9698 25.4598 23.0374C25.4877 23.105 25.5286 23.1664 25.5803 23.2181C25.6319 23.2698 25.6933 23.3108 25.7609 23.3386C25.8284 23.3665 25.9008 23.3807 25.9739 23.3805V23.4305H25.974H32.2737L25.9739 15.9688ZM32.8797 22.8241V22.8243H32.8298L32.8797 22.8241ZM32.8797 22.8241V16.5252M32.8797 22.8241V16.5252M32.8797 16.5252V16.525H32.8297L32.8797 16.5252ZM25.368 16.5251V22.8242V16.5251ZM26.5797 17.1263H31.668V22.223H26.5797V17.1263Z" fill="white" stroke="white" stroke-width="0.1"/>
</svg>
