<svg width="20" height="20" viewBox="0 0 20 20" fill="none" xmlns="http://www.w3.org/2000/svg">
<path d="M10 0C4.48889 0 0 4.48889 0 10C0 15.5111 4.48889 20 10 20C15.5111 20 20 15.5111 20 10C20 4.48889 15.5111 0 10 0ZM17.4889 14.3333C17.0222 14.1556 16.4 14.0222 15.5556 13.8889C15.2889 13.8444 15 13.8222 14.7111 13.7778C14.9333 12.7333 15.0667 11.6222 15.0889 10.4222H18.6444C18.5778 11.8667 18.1778 13.1778 17.4889 14.3333ZM11.0444 18.6C10.8444 18.6222 10.6444 18.6444 10.4444 18.6444V14.4667C11.6444 14.4667 12.6889 14.5111 13.6 14.6C13.0222 16.5333 12.1111 18 11.0444 18.6ZM6.4 14.5778C7.31111 14.5111 8.35556 14.4667 9.55556 14.4444V18.6222C9.35556 18.6222 9.15556 18.6 8.95556 18.5778C7.88889 18 6.97778 16.5333 6.4 14.5778ZM1.35556 10.4444H4.91111C4.93333 11.6444 5.06667 12.7556 5.28889 13.8C5 13.8222 4.71111 13.8667 4.44444 13.9111C3.6 14.0222 2.97778 14.1778 2.51111 14.3556C1.82222 13.1778 1.42222 11.8667 1.35556 10.4444ZM2.51111 5.66667C2.97778 5.84444 3.6 5.97778 4.44444 6.11111C4.71111 6.15556 5 6.17778 5.28889 6.22222C5.06667 7.26667 4.93333 8.37778 4.91111 9.57778H1.35556C1.42222 8.13333 1.82222 6.82222 2.51111 5.66667ZM8.95556 1.4C9.15556 1.37778 9.35556 1.35556 9.55556 1.35556V5.53333C8.35556 5.53333 7.31111 5.48889 6.4 5.4C6.97778 3.46667 7.88889 2 8.95556 1.4ZM13.6 5.42222C12.6889 5.48889 11.6444 5.53333 10.4444 5.55556V1.35556C10.6444 1.35556 10.8444 1.37778 11.0444 1.4C12.1111 2 13.0222 3.46667 13.6 5.42222ZM10.4444 6.42222C11.6444 6.42222 12.8 6.35556 13.8222 6.28889C14.0444 7.28889 14.2 8.4 14.2222 9.55556H10.4444V6.42222ZM9.55556 6.42222V9.55556H5.77778C5.8 8.4 5.95556 7.28889 6.17778 6.28889C7.2 6.35556 8.35556 6.42222 9.55556 6.42222ZM5.77778 10.4444H9.55556V13.5778C8.35556 13.5778 7.2 13.6444 6.17778 13.7111C5.95556 12.7111 5.82222 11.6 5.77778 10.4444ZM10.4444 13.5778V10.4444H14.2222C14.2 11.6 14.0444 12.7111 13.8222 13.7111C12.8 13.6444 11.6444 13.5778 10.4444 13.5778ZM15.1111 9.55556C15.0889 8.35556 14.9556 7.24444 14.7333 6.2C15.0222 6.17778 15.3111 6.13333 15.5778 6.08889C16.4222 5.97778 17.0444 5.82222 17.5111 5.64444C18.1778 6.8 18.6 8.13333 18.6667 9.53333H15.1111V9.55556ZM17 4.88889C16.4889 5.04444 15.6667 5.2 14.5111 5.33333C14.1111 3.91111 13.5333 2.68889 12.8222 1.82222C14.5111 2.4 15.9556 3.48889 17 4.88889ZM7.17778 1.8C6.46667 2.68889 5.88889 3.88889 5.48889 5.31111C4.33333 5.2 3.51111 5.04444 3 4.86667C4.04444 3.48889 5.48889 2.4 7.17778 1.8ZM3 15.1111C3.51111 14.9556 4.33333 14.8 5.48889 14.6667C5.88889 16.0889 6.46667 17.3111 7.17778 18.1778C5.48889 17.6 4.04444 16.5111 3 15.1111ZM12.8222 18.2C13.5333 17.3111 14.1111 16.1111 14.5111 14.6889C15.6667 14.8 16.4889 14.9556 17 15.1333C15.9556 16.5111 14.5111 17.6 12.8222 18.2Z" fill="white"/>
</svg>
