<svg width="23" height="20" viewBox="0 0 23 20" fill="none" xmlns="http://www.w3.org/2000/svg">
<path d="M20.3413 1.50708C19.3437 0.687167 18.0637 0.235594 16.7369 0.235594C15.2026 0.235594 13.7181 0.842899 12.6648 1.90226C12.419 2.14831 12.1944 2.4195 11.9859 2.71998C10.9093 1.16583 9.16996 0.226562 7.29576 0.226562C6.95241 0.226562 6.60415 0.258051 6.26056 0.32005C4.48691 0.641522 3.09291 1.61253 2.11731 3.20524C0.720612 5.48849 0.610005 7.59697 1.77813 9.65126C2.40474 10.7516 3.21995 11.8281 4.27183 12.9416C6.2071 14.9893 8.49748 16.9321 11.4822 19.0574C11.6411 19.1699 11.8103 19.2266 11.9842 19.2266C12.254 19.2266 12.4364 19.0906 12.5404 19.0125C15.193 17.1288 17.3696 15.314 19.1958 13.4623C20.2229 12.4205 21.3863 11.1405 22.2369 9.54874C22.5937 8.87846 23.0013 7.97873 22.9775 6.96232C22.9241 4.73766 22.0375 2.90207 20.3413 1.50708ZM21.148 8.9739C20.372 10.427 19.2809 11.6245 18.3165 12.6033C16.5777 14.3664 14.5046 16.1002 11.9803 17.9033C9.17045 15.8881 7.00097 14.0403 5.16944 12.1017C4.1855 11.0599 3.42768 10.0608 2.85061 9.04664C1.90983 7.39169 2.01087 5.7382 3.17017 3.84378C3.95472 2.56229 5.06938 1.7829 6.48055 1.52685C6.75081 1.47779 7.02525 1.45338 7.29576 1.45338C8.97744 1.45338 10.4663 2.37629 11.2744 3.91579C11.3206 4.00537 11.3659 4.09081 11.4407 4.22945C11.5477 4.4301 11.7569 4.55459 11.984 4.55459C11.9874 4.55459 11.9911 4.55459 11.9945 4.55459C12.2253 4.55068 12.4347 4.41863 12.5367 4.21237C12.8313 3.61775 13.1499 3.15837 13.5403 2.76538C14.3646 1.93668 15.5295 1.46241 16.7371 1.46241C17.7785 1.46241 18.7796 1.81415 19.556 2.45318C20.9652 3.61068 21.7015 5.13821 21.7461 6.99137C21.7626 7.71926 21.4526 8.40174 21.148 8.9739Z" fill="white"/>
</svg>
