<svg width="49" height="48" viewBox="0 0 49 48" fill="none" xmlns="http://www.w3.org/2000/svg">
<path d="M33.4024 15.3479C32.3522 14.4848 31.0049 14.0095 29.6083 14.0095C27.9932 14.0095 26.4306 14.6488 25.3218 15.7639C25.0632 16.0229 24.8267 16.3084 24.6072 16.6246C23.4739 14.9887 21.6431 14 19.6702 14C19.3088 14 18.9422 14.0331 18.5806 14.0984C16.7136 14.4368 15.2462 15.4589 14.2192 17.1354C12.749 19.5389 12.6326 21.7583 13.8622 23.9207C14.5218 25.079 15.3799 26.2121 16.4872 27.3843C18.5243 29.5398 20.9352 31.5848 24.077 33.8219C24.2443 33.9404 24.4224 34 24.6054 34C24.8894 34 25.0815 33.8569 25.1909 33.7747C27.9832 31.7919 30.2743 29.8815 32.1966 27.9323C33.2777 26.8357 34.5024 25.4883 35.3977 23.8128C35.7733 23.1073 36.2024 22.1602 36.1774 21.0903C36.1211 18.7485 35.1878 16.8163 33.4024 15.3479ZM34.2515 23.2077C33.4347 24.7373 32.2861 25.9978 31.2711 27.0282C29.4407 28.8841 27.2585 30.7091 24.6013 32.6071C21.6436 30.4858 19.3599 28.5408 17.432 26.5002C16.3963 25.4035 15.5986 24.3519 14.9911 23.2843C14.0008 21.5422 14.1072 19.8017 15.3275 17.8076C16.1534 16.4587 17.3267 15.6383 18.8121 15.3687C19.0966 15.3171 19.3855 15.2914 19.6702 15.2914C21.4404 15.2914 23.0077 16.2629 23.8583 17.8834C23.9069 17.9777 23.9546 18.0676 24.0334 18.2136C24.1459 18.4248 24.3661 18.5558 24.6052 18.5558C24.6088 18.5558 24.6127 18.5558 24.6163 18.5558C24.8592 18.5517 25.0797 18.4127 25.1871 18.1956C25.4971 17.5697 25.8325 17.0861 26.2434 16.6724C27.1111 15.8001 28.3374 15.3009 29.6085 15.3009C30.7047 15.3009 31.7585 15.6711 32.5758 16.3438C34.0592 17.5622 34.8342 19.1702 34.8811 21.1209C34.8984 21.887 34.5721 22.6055 34.2515 23.2077Z" fill="white"/>
</svg>
