<svg width="139" height="19" viewBox="0 0 139 19" fill="none" xmlns="http://www.w3.org/2000/svg">
<path d="M0.507812 4.27246C0.507812 2.63184 0.81543 1.5096 1.43066 0.905762C2.0459 0.301921 3.23079 0 4.98535 0H18.2812C20.0358 0 21.2207 0.301921 21.8359 0.905762C22.4512 1.5096 22.7588 2.63184 22.7588 4.27246V13.7915C22.7588 15.4435 22.4512 16.5715 21.8359 17.1753C21.2207 17.7677 20.0358 18.064 18.2812 18.064H4.98535C3.23079 18.064 2.0459 17.7677 1.43066 17.1753C0.81543 16.5715 0.507812 15.4435 0.507812 13.7915V4.27246ZM4.71191 14.6631H18.5718V3.22998H4.71191V14.6631Z" fill="white"/>
<path d="M50.5845 2.93945H40.9971V7.24609H50.5845C51.3136 7.24609 51.8149 7.14925 52.0884 6.95557C52.3732 6.76188 52.5156 6.42578 52.5156 5.94727V4.23828C52.5156 3.77116 52.3732 3.44076 52.0884 3.24707C51.8149 3.04199 51.3136 2.93945 50.5845 2.93945ZM50.5845 10.2197H40.9971V14.8169H50.5845C51.382 14.8169 51.9175 14.6973 52.1909 14.458C52.4757 14.2188 52.6182 13.7972 52.6182 13.1934V11.8262C52.6182 11.2223 52.4757 10.8065 52.1909 10.5786C51.9175 10.3394 51.382 10.2197 50.5845 10.2197ZM36.8613 18.064V0H52.3447C53.7689 0 54.8 0.279134 55.438 0.837402C56.076 1.39567 56.395 2.28434 56.395 3.50342V5.70801C56.395 6.57389 56.1273 7.26888 55.5918 7.79297C55.0563 8.30566 54.2873 8.62467 53.2847 8.75C54.3215 8.88672 55.119 9.257 55.6772 9.86084C56.2469 10.4647 56.5317 11.2508 56.5317 12.2192V14.5264C56.5317 15.7227 56.0931 16.6113 55.2158 17.1924C54.3385 17.7734 53.0055 18.064 51.2168 18.064H36.8613Z" fill="white"/>
<path d="M74.1035 0V14.6631H86.0835V0H90.2705V13.7915C90.2705 15.4435 89.9629 16.5715 89.3477 17.1753C88.7324 17.7677 87.5475 18.064 85.793 18.064H74.377C72.6338 18.064 71.4489 17.7677 70.8223 17.1753C70.207 16.5715 69.8994 15.4435 69.8994 13.7915V0H74.1035Z" fill="white"/>
<path d="M110.884 18.064L100.442 0H105.245L112.559 13.0566L119.532 0H123.719L113.79 18.064H110.884Z" fill="white"/>
<path d="M133.891 18.064V0H138.095V18.064H133.891Z" fill="white"/>
</svg>
