<svg width="148" height="19" viewBox="0 0 148 19" fill="none" xmlns="http://www.w3.org/2000/svg">
<path d="M13.5864 3.12744H4.13574V7.9126H13.5864C14.3156 7.9126 14.8112 7.81006 15.0732 7.60498C15.3467 7.38851 15.4834 7.01253 15.4834 6.47705V4.5459C15.4834 4.02181 15.3467 3.65723 15.0732 3.45215C14.8112 3.23568 14.3156 3.12744 13.5864 3.12744ZM0 18.064V0H15.4492C16.8848 0 17.9215 0.279134 18.5596 0.837402C19.209 1.38428 19.5337 2.27295 19.5337 3.50342V7.53662C19.5337 8.7557 19.209 9.64437 18.5596 10.2026C17.9215 10.7495 16.8848 11.0229 15.4492 11.0229H4.13574V18.064H0Z" fill="#E83841"/>
<path d="M33.978 10.8521H41.8906L37.9941 3.50342L33.978 10.8521ZM25.8945 18.064L36.1143 0H40.1646L50.521 18.064H45.8042L43.6338 14.1162H32.1836L30.0815 18.064H25.8945Z" fill="#E83841"/>
<path d="M75.1851 3.12744H65.7344V8.15186H75.1851C75.9142 8.15186 76.4098 8.04932 76.6719 7.84424C76.9453 7.62777 77.082 7.25179 77.082 6.71631V4.5459C77.082 4.02181 76.9453 3.65723 76.6719 3.45215C76.4098 3.23568 75.9142 3.12744 75.1851 3.12744ZM61.5986 18.064V0H77.0479C78.4834 0 79.5202 0.279134 80.1582 0.837402C80.8076 1.38428 81.1323 2.27295 81.1323 3.50342V7.7417C81.1323 8.96077 80.8076 9.84945 80.1582 10.4077C79.5202 10.966 78.4834 11.2451 77.0479 11.2451H74.6895L83.0293 18.064H76.9966L69.7163 11.2451H65.7344V18.064H61.5986Z" fill="#E83841"/>
<path d="M98.2769 10.8521H106.189L102.293 3.50342L98.2769 10.8521ZM90.1934 18.064L100.413 0H104.463L114.82 18.064H110.103L107.933 14.1162H96.4824L94.3804 18.064H90.1934Z" fill="#E83841"/>
<path d="M130.102 14.6631H135.536C138.43 14.6631 140.481 14.2131 141.688 13.313C142.896 12.4129 143.5 10.9261 143.5 8.85254C143.5 7.00684 142.999 5.61117 141.996 4.66553C140.993 3.7085 139.512 3.22998 137.553 3.22998H130.102V14.6631ZM125.897 18.064V0H137.519C140.834 0 143.38 0.77474 145.158 2.32422C146.946 3.8737 147.841 6.07259 147.841 8.9209C147.841 10.6071 147.493 12.1281 146.798 13.4839C146.103 14.8283 145.124 15.8879 143.859 16.6626C143.073 17.1525 142.093 17.5114 140.919 17.7393C139.757 17.9557 138.265 18.064 136.442 18.064H125.897Z" fill="#E83841"/>
</svg>
