<svg width="23" height="19" viewBox="0 0 23 19" fill="none" xmlns="http://www.w3.org/2000/svg">
<path d="M5.53991 12.8461C4.75761 10.9278 4.57899 8.75209 5.2121 6.64759C6.66096 1.83152 11.7496 -0.944496 16.5688 0.527865C21.388 2.00023 24.0623 7.10382 22.6013 11.9604C21.1403 16.8169 16.0638 19.5524 11.2446 18.0801C9.11612 17.4298 7.41978 16.0719 6.3113 14.3633L1.54881 16.9296C1.35164 17.002 1.12649 17.0216 0.925692 16.9602C0.724893 16.8989 0.548444 16.7566 0.436505 16.5456C0.212629 16.1237 0.358733 15.638 0.777414 15.4124L5.53991 12.8461ZM20.9949 11.4696C22.1881 7.5034 19.9773 3.33687 16.0417 2.13444C12.106 0.932014 7.97152 3.15993 6.77834 7.12611C5.58516 11.0923 7.79594 15.2588 11.7316 16.4612C15.6673 17.6637 19.8139 15.3953 20.9949 11.4696Z" fill="#373232"/>
</svg>
