<svg width="49" height="48" viewBox="0 0 49 48" fill="none" xmlns="http://www.w3.org/2000/svg">
<path d="M30.6275 29.2214C32.1665 27.7048 33.2253 25.7007 33.4685 23.4391C34.0251 18.2636 30.2242 13.5756 24.9549 13.0488C19.6857 12.522 15.0166 16.3192 14.4553 21.5381C13.894 26.7571 17.6996 31.4016 22.9689 31.9284C25.2961 32.1611 27.4927 31.5455 29.2624 30.3597L32.8326 34.7169C32.9942 34.865 33.2044 34.9739 33.424 34.9959C33.6435 35.0178 33.8724 34.9528 34.0668 34.7964C34.4555 34.4836 34.5116 33.9617 34.1978 33.5786L30.6275 29.2214ZM16.2117 21.7137C16.6701 17.4516 20.5085 14.3626 24.8118 14.7929C29.115 15.2231 32.2144 19.0057 31.756 23.2679C31.2976 27.53 27.4592 30.619 23.156 30.1888C18.8528 29.7585 15.758 25.9324 16.2117 21.7137Z" fill="white"/>
</svg>
