<svg width="15" height="9" fill="none" xmlns="http://www.w3.org/2000/svg"><path fill="#999" fill-rule="evenodd" clip-rule="evenodd" d="M7.117 0C4.724.024 2.417 1.465.2 4.084a.53.53 0 00-.165.24.53.53 0 00.198.626c2.21 2.594 4.504 4.022 6.885 4.046 2.41.024 4.763-1.394 7.04-4.136.007-.008.014-.015.02-.024a.66.66 0 00.1-.192.527.527 0 00.02-.113l.001-.004v-.009a.5.5 0 00-.064-.271l-.002-.006-.003-.003a.558.558 0 00-.054-.08 1.523 1.523 0 00-.007-.009C11.887 1.4 9.53-.023 7.117 0zm.013 1.06c1.905-.02 3.88 1.057 5.945 3.44-2.065 2.383-4.04 3.458-5.945 3.439-1.901-.02-3.864-1.135-5.89-3.44 2.026-2.304 3.989-3.42 5.89-3.44zm.025.53a2.918 2.918 0 00-2.91 2.91 2.918 2.918 0 002.91 2.91 2.918 2.918 0 002.91-2.91 2.917 2.917 0 00-2.91-2.91zm0 1.058c1.03 0 1.854.822 1.854 1.851 0 1.03-.824 1.854-1.854 1.854a1.845 1.845 0 01-1.851-1.854c0-1.029.822-1.851 1.851-1.851z"/></svg>