<svg width="42" height="40" fill="none" xmlns="http://www.w3.org/2000/svg"><path d="M5.258 20c0 8.593 7.132 15.556 15.93 15.556 8.8 0 15.932-6.964 15.932-15.556 0-8.593-7.132-15.556-15.931-15.556-8.8 0-15.93 6.964-15.93 15.556zM.707 20c0-11.046 9.167-20 20.482-20C32.5 0 41.67 8.952 41.67 20c0 11.046-9.167 20-20.482 20C9.877 40 .707 31.048.707 20zm18.206-2.216v11.098c0 1.256 1.019 2.23 2.276 2.23 1.266 0 2.276-.999 2.276-2.23V17.784c0-1.255-1.02-2.228-2.276-2.228-1.266 0-2.276.997-2.276 2.228zm0-6.673c0 1.236 1.019 2.222 2.276 2.222 1.266 0 2.276-.995 2.276-2.222 0-1.236-1.02-2.222-2.276-2.222-1.266 0-2.276.995-2.276 2.222z" fill="#E83841"/></svg>