<svg width="27" height="26" fill="none" xmlns="http://www.w3.org/2000/svg"><path d="M1.742 13.184h10.274v.05a.747.747 0 01.75.749l-11.024-.799zm0 0a.796.796 0 00-.792.799m.792-.799L1 13.983M.95 24.25a.796.796 0 00.792.798h10.274L1 24.252m-.05 0s0 0 0 0H1m-.05 0v0H1m-.05 0V13.983M1 24.25V13.983m-.05 0s0 0 0 0H1m-.05 0v0H1M12.815 24.25V13.983L12.016 25a.747.747 0 00.75-.749h.05v0zM2.541 14.78h8.683v8.678H2.541V14.78zM.95 1.742h0A.797.797 0 011.748.95m-.798.792L1.749.95s0 0 0 0m-.799.792v0m0 0v0M1.748.95h10.269M1.748.95h10.269m0 0h0V1 .95zM.95 1.742v10.274V1.742zm1.597.799h8.678v8.683H2.547V2.541zm12.437 10.643a.797.797 0 00-.306.06l11.322.74a.746.746 0 00-.748-.749v-.05h0-10.268zm0 0s0 0 0 0v.05-.05h0zM26.05 24.251V13.983L25.252 25a.746.746 0 00.748-.75h.05v0zm-11.066.798h10.268l-11.017-.798a.746.746 0 00.749.748v.05h0zm-.799-11.066V24.25l.05-10.268h-.05v0zm1.597.798h8.678v8.678h-8.678v-8.678zm-.886-10.893a.71.71 0 00-.273.053l8.435.659a.661.661 0 00-.662-.662v-.05h0-7.5zm0 0s0 0 0 0v.05-.05h0zm8.212 8.21V4.6l-.712 8.161a.66.66 0 00.662-.662h.05v0zm-8.212.713h7.5l-8.162-.712a.659.659 0 00.662.662v.05h0zM14.184 4.6v7.499l.05-7.5h-.05v0zm1.424.706h6.077v6.087h-6.077V5.306z" fill="#000" stroke="#fff" stroke-width=".1"/></svg>