<svg width="25" height="26" fill="none" xmlns="http://www.w3.org/2000/svg"><path d="M12.498 14.074c-3.967 0-7.193-3.157-7.193-7.037S8.53 0 12.498 0c3.966 0 7.192 3.157 7.192 7.037s-3.226 7.037-7.192 7.037zm0-12.162c-2.889 0-5.239 2.3-5.239 5.125 0 2.826 2.35 5.125 5.239 5.125 2.888 0 5.238-2.3 5.238-5.125 0-2.826-2.35-5.125-5.238-5.125zM.977 25.166a.974.974 0 01-.33-.057.95.95 0 01-.59-1.223C1.94 18.768 6.94 15.328 12.5 15.328s10.56 3.44 12.442 8.558a.951.951 0 01-.589 1.223.984.984 0 01-1.25-.576c-1.604-4.361-5.864-7.293-10.603-7.293-4.738 0-9 2.932-10.603 7.293a.978.978 0 01-.92.633z" fill="#282828"/></svg>