<svg width="25" height="25" fill="none" xmlns="http://www.w3.org/2000/svg"><path d="M20.491.725h0a2.022 2.022 0 00-2.869 0h0l-3.585 3.577h0M20.491.725l-6.544 6.543a2.157 2.157 0 010-3.056l.09.09M20.491.725l3.328 3.324M20.49.725l3.328 3.324m-9.782.253a2.029 2.029 0 000 2.875h0l2.8 2.803.062.061-.035.08a12.795 12.795 0 01-2.727 4.018 12.823 12.823 0 01-4.014 2.733l-.08.034-.062-.061-2.8-2.803s0 0 0 0a2.022 2.022 0 00-1.434-.597h0a2.003 2.003 0 00-1.434.596h0L.724 17.62s0 0 0 0a2.029 2.029 0 000 2.875L4.05 23.82a3.615 3.615 0 002.54 1.053c.197 0 .387-.015.579-.048h0c4.109-.676 8.192-2.865 11.49-6.16 3.297-3.302 5.482-7.384 6.165-11.495h0a3.596 3.596 0 00-1.005-3.12m-9.782.253l9.782-.253M4.222 13.951L.634 17.53a2.156 2.156 0 000 3.056L3.96 23.91A3.742 3.742 0 006.591 25c.203 0 .4-.016.6-.05 4.137-.681 8.243-2.884 11.56-6.196 3.312-3.318 5.512-7.424 6.2-11.564a3.724 3.724 0 00-1.041-3.231L4.222 13.95zm0 0c.2-.202.437-.362.698-.47m-.698.47l.698-.47m0 0a2.13 2.13 0 01.827-.164l-.827.163zm.533 8.932h0a1.6 1.6 0 001.387.448c3.714-.614 7.41-2.61 10.41-5.61 3-3 4.996-6.699 5.61-10.412a1.59 1.59 0 00-.45-1.386l-3.266-3.266-.09-.09-.091.09L15.5 5.653l-.09.09.09.09 3.717 3.714-.221.598h0A14.91 14.91 0 0110.143 19h0l-.598.221-3.714-3.72-.09-.09-.09.09-3.463 3.466-.09.09.09.09 3.265 3.266z" fill="#282828" stroke="#fff" stroke-width=".256"/></svg>