<svg width="49" height="48" fill="none" xmlns="http://www.w3.org/2000/svg"><path d="M24.198 25.302c-3.467 0-6.287-2.76-6.287-6.151 0-3.392 2.82-6.151 6.287-6.151s6.287 2.76 6.287 6.15c0 3.392-2.82 6.152-6.287 6.152zm0-10.63c-2.524 0-4.578 2.01-4.578 4.479 0 2.47 2.054 4.48 4.578 4.48 2.525 0 4.579-2.01 4.579-4.48 0-2.47-2.054-4.48-4.579-4.48zM14.129 34.998a.85.85 0 01-.29-.05.83.83 0 01-.514-1.07c1.644-4.473 6.015-7.48 10.876-7.48 4.86 0 9.23 3.006 10.874 7.48a.831.831 0 01-.514 1.07.86.86 0 01-1.094-.504c-1.401-3.812-5.125-6.374-9.266-6.374-4.142 0-7.867 2.562-9.268 6.374a.855.855 0 01-.804.554z" fill="#fff"/></svg>