<svg width="18" height="19" fill="none" xmlns="http://www.w3.org/2000/svg"><path d="M8.989 10.91c-2.852 0-5.173-2.27-5.173-5.06 0-2.79 2.32-5.06 5.173-5.06 2.852 0 5.172 2.27 5.172 5.06 0 2.79-2.32 5.06-5.172 5.06zm0-8.746c-2.077 0-3.767 1.654-3.767 3.685 0 2.032 1.69 3.686 3.767 3.686s3.767-1.654 3.767-3.686-1.69-3.685-3.767-3.685zM.703 18.66a.7.7 0 01-.238-.04.683.683 0 01-.423-.88c1.353-3.68 4.948-6.154 8.947-6.154 3.999 0 7.594 2.473 8.948 6.154a.684.684 0 01-.424.88.708.708 0 01-.9-.415c-1.153-3.136-4.216-5.244-7.624-5.244-3.407 0-6.472 2.108-7.624 5.244a.704.704 0 01-.662.456z" fill="#fff"/></svg>