<svg width="25" height="22" fill="none" xmlns="http://www.w3.org/2000/svg"><path d="M22.677 6.28h-4.9V3.803c0-1.985-1.667-3.577-3.687-3.577h-2.197C9.847.227 8.18 1.819 8.18 3.804V6.28h-4.9c-.707 0-1.389.319-1.818.907a2.323 2.323 0 00-.379 2.107l2.4 10.267v.05a2.28 2.28 0 002.197 1.617h14.572a2.31 2.31 0 002.198-1.618l2.424-10.316c.227-.71.076-1.495-.379-2.107a2.308 2.308 0 00-1.818-.907zM9.392 3.803c0-1.323 1.111-2.401 2.475-2.401h2.197c1.364 0 2.476 1.078 2.476 2.401V6.28H9.392V3.804zm10.86 16.222H5.705c-.455 0-.859-.294-1.01-.76 0 0 .232.766 1.01.76a801.59 801.59 0 0114.547 0c.81.006 1.036-.76 1.036-.76-.152.466-.556.76-1.036.76zm3.435-11.051l-1.92 8.208-.48 2.083s-.225.766-1.035.76a807.137 807.137 0 00-14.547 0c-.778.006-1.01-.76-1.01-.76L2.27 9v-.05c-.126-.368-.05-.76.177-1.078.202-.27.505-.417.833-.417h4.9v3.014h1.212V7.48h7.148v2.99h1.237V7.48h4.9c.328 0 .631.148.833.417.228.294.303.711.177 1.079z" fill="#fff"/></svg>