<svg width="48" height="48" fill="none" xmlns="http://www.w3.org/2000/svg"><path d="M34.102 19.34H29v-2.592C29 14.668 27.263 13 25.159 13h-2.29c-2.13 0-3.867 1.669-3.867 3.748v2.593h-5.103c-.737 0-1.447.333-1.895.95a2.444 2.444 0 00-.394 2.207l2.5 10.756v.052A2.376 2.376 0 0016.396 35h15.18a2.408 2.408 0 002.289-1.694l2.525-10.808c.237-.744.08-1.566-.394-2.207a2.4 2.4 0 00-1.895-.95zm-13.838-2.592c0-1.386 1.158-2.516 2.578-2.516h2.29c1.42 0 2.577 1.13 2.577 2.516v2.593h-7.445v-2.593zm11.313 16.994H16.423c-.473 0-.894-.308-1.052-.796 0 0 .242.802 1.052.796a832.06 832.06 0 0115.154 0c.843.007 1.078-.796 1.078-.796a1.117 1.117 0 01-1.078.796zm3.578-11.577l-2 8.6-.5 2.181s-.235.803-1.078.796a837.477 837.477 0 00-15.154 0c-.81.006-1.052-.796-1.052-.796L12.845 22.19v-.051a1.244 1.244 0 01.184-1.13 1.07 1.07 0 01.869-.436H19v3.157h1.263V20.6h7.445v3.131H29V20.6h5.103c.342 0 .658.154.869.436.236.308.315.744.184 1.13z" fill="#fff"/></svg>