<svg width="49" height="48" fill="none" xmlns="http://www.w3.org/2000/svg"><path d="M14.923 24.567h8.63-8.63zm0 0a.677.677 0 00-.673.679m.673-.679l-.673.679m9.982 8.625h0v-8.625l-.679 9.253a.627.627 0 00.63-.628h.05zm0 0a.678.678 0 01-.679.678m.68-.678l-.68.678m0 0v-.05.05h0zm-9.303-9.303v0h.05-.05s0 0 0 0zm1.352.678h7.278v7.274h-7.278v-7.274zM14.25 14.123h0a.677.677 0 01.678-.673m-.678.673l.679-.673s0 0 0 0m-.68.673v0m0 0v0m.68-.673h8.624m-8.625 0h8.625m0 0h0v.05-.05zm-9.303.673v8.63-8.63zm1.357.68h7.274v7.277h-7.274v-7.278zm10.44 9.764a.676.676 0 00-.26.051l9.513.628a.626.626 0 00-.628-.629v-.05h0-8.625zm0 0s0 0 0 0v.05-.05h0zm8.625 9.983v-.05l-9.254-.63a.626.626 0 00.629.63v.05h8.625zm-9.304-9.304v8.625-8.625zm9.982 8.625v-8.625 8.625zm-8.625-7.947H34v7.274h-7.274v-7.274zm-.751-10.005a.602.602 0 00-.232.045l6.532 7.417a.554.554 0 00.556-.557v-6.299a.554.554 0 00-.556-.556v-.05h0-6.3zm0 0s0 0 0 0v.05m0-.05h0v.05m0 0a.554.554 0 00-.556.556v6.3a.554.554 0 00.556.556v.05h6.3l-6.3-7.462zm6.906 6.855v0h-.05.05zm0 0v-6.299m0 6.3v-6.3m0 0v0h-.05.05zm-7.512 0v6.3-6.3zm1.212.601h5.088v5.097H26.58v-5.097z" fill="#fff" stroke="#fff" stroke-width=".1"/></svg>