<svg width="27" height="26" fill="none" xmlns="http://www.w3.org/2000/svg"><mask id="a" maskUnits="userSpaceOnUse" x="0" y="12.234" width="13" height="13" fill="#000"><path fill="#fff" d="M0 12.234h13v13H0z"/><path fill-rule="evenodd" clip-rule="evenodd" d="M1.742 13.234a.747.747 0 00-.742.749V24.25a.746.746 0 00.742.748h10.274a.747.747 0 00.75-.748V13.983a.746.746 0 00-.75-.749H1.742zm.749 1.497h8.783v8.778H2.491v-8.778z"/></mask><path fill-rule="evenodd" clip-rule="evenodd" d="M1.742 13.234a.747.747 0 00-.742.749V24.25a.746.746 0 00.742.748h10.274a.747.747 0 00.75-.748V13.983a.746.746 0 00-.75-.749H1.742zm.749 1.497h8.783v8.778H2.491v-8.778z" fill="#000"/><path clip-rule="evenodd" d="M1.742 13.234a.747.747 0 00-.742.749V24.25a.746.746 0 00.742.748h10.274a.747.747 0 00.75-.748V13.983a.746.746 0 00-.75-.749H1.742zm.749 1.497h8.783v8.778H2.491v-8.778z" stroke="#fff" stroke-width=".2" mask="url(#a)"/><mask id="b" maskUnits="userSpaceOnUse" x="0" y="0" width="13" height="13" fill="#000"><path fill="#fff" d="M0 0h13v13H0z"/><path fill-rule="evenodd" clip-rule="evenodd" d="M1.748 1A.746.746 0 001 1.742v10.274a.747.747 0 00.748.75h10.269a.746.746 0 00.748-.75V1.742A.747.747 0 0012.017 1H1.748zm.749 1.49h8.778v8.784H2.497V2.491z"/></mask><path fill-rule="evenodd" clip-rule="evenodd" d="M1.748 1A.746.746 0 001 1.742v10.274a.747.747 0 00.748.75h10.269a.746.746 0 00.748-.75V1.742A.747.747 0 0012.017 1H1.748zm.749 1.49h8.778v8.784H2.497V2.491z" fill="#000"/><path clip-rule="evenodd" d="M1.748 1A.746.746 0 001 1.742v10.274a.747.747 0 00.748.75h10.269a.746.746 0 00.748-.75V1.742A.747.747 0 0012.017 1H1.748zm.749 1.49h8.778v8.784H2.497V2.491z" stroke="#fff" stroke-width=".2" mask="url(#b)"/><mask id="c" maskUnits="userSpaceOnUse" x="13.235" y="12.234" width="13" height="13" fill="#000"><path fill="#fff" d="M13.235 12.234h13v13h-13z"/><path fill-rule="evenodd" clip-rule="evenodd" d="M14.984 13.234a.746.746 0 00-.749.749V24.25a.746.746 0 00.749.748h10.268A.746.746 0 0026 24.25V13.983a.746.746 0 00-.748-.749H14.984zm.748 1.497h8.778v8.778h-8.778v-8.778z"/></mask><path fill-rule="evenodd" clip-rule="evenodd" d="M14.984 13.234a.746.746 0 00-.749.749V24.25a.746.746 0 00.749.748h10.268A.746.746 0 0026 24.25V13.983a.746.746 0 00-.748-.749H14.984zm.748 1.497h8.778v8.778h-8.778v-8.778z" fill="#000"/><path clip-rule="evenodd" d="M14.984 13.234a.746.746 0 00-.749.749V24.25a.746.746 0 00.749.748h10.268A.746.746 0 0026 24.25V13.983a.746.746 0 00-.748-.749H14.984zm.748 1.497h8.778v8.778h-8.778v-8.778z" stroke="#fff" stroke-width=".2" mask="url(#c)"/><mask id="d" maskUnits="userSpaceOnUse" x="13.234" y="2.938" width="10" height="10" fill="#000"><path fill="#fff" d="M13.234 2.938h10v10h-10z"/><path fill-rule="evenodd" clip-rule="evenodd" d="M14.896 3.938a.66.66 0 00-.662.662v7.5a.659.659 0 00.662.661h7.5a.66.66 0 00.662-.662V4.6a.661.661 0 00-.662-.662h-7.5zm.662 1.318h6.177v6.187h-6.177V5.256z"/></mask><path fill-rule="evenodd" clip-rule="evenodd" d="M14.896 3.938a.66.66 0 00-.662.662v7.5a.659.659 0 00.662.661h7.5a.66.66 0 00.662-.662V4.6a.661.661 0 00-.662-.662h-7.5zm.662 1.318h6.177v6.187h-6.177V5.256z" fill="#000"/><path clip-rule="evenodd" d="M14.896 3.938a.66.66 0 00-.662.662v7.5a.659.659 0 00.662.661h7.5a.66.66 0 00.662-.662V4.6a.661.661 0 00-.662-.662h-7.5zm.662 1.318h6.177v6.187h-6.177V5.256z" stroke="#fff" stroke-width=".2" mask="url(#d)"/></svg>