<svg width="20" height="20" fill="none" xmlns="http://www.w3.org/2000/svg"><path d="M10 0C4.489 0 0 4.489 0 10s4.489 10 10 10 10-4.489 10-10S15.511 0 10 0zm7.489 14.333c-.467-.177-1.089-.31-1.933-.444-.267-.045-.556-.067-.845-.111a17.61 17.61 0 00.378-3.356h3.555a8.293 8.293 0 01-1.155 3.911zM11.044 18.6c-.2.022-.4.044-.6.044v-4.177c1.2 0 2.245.044 3.156.133-.578 1.933-1.489 3.4-2.556 4zM6.4 14.578a58.525 58.525 0 013.156-.134v4.178c-.2 0-.4-.022-.6-.044-1.067-.578-1.978-2.045-2.556-4zm-5.044-4.134H4.91c.022 1.2.156 2.312.378 3.356a9.71 9.71 0 00-.845.111c-.844.111-1.466.267-1.933.445a8.449 8.449 0 01-1.155-3.912zM2.51 5.667c.467.177 1.089.31 1.933.444.267.045.556.067.845.111a17.61 17.61 0 00-.378 3.356H1.356A8.294 8.294 0 012.51 5.667zM8.956 1.4c.2-.022.4-.044.6-.044v4.177c-1.2 0-2.245-.044-3.156-.133.578-1.933 1.489-3.4 2.556-4zM13.6 5.422a58.49 58.49 0 01-3.156.134v-4.2c.2 0 .4.022.6.044 1.067.6 1.978 2.067 2.556 4.022zm-3.156 1c1.2 0 2.356-.066 3.378-.133.222 1 .378 2.111.4 3.267h-3.778V6.422zm-.888 0v3.134H5.778a16.63 16.63 0 01.4-3.267 51.45 51.45 0 003.378.133zm-3.778 4.022h3.778v3.134c-1.2 0-2.356.066-3.378.133a18.5 18.5 0 01-.4-3.267zm4.666 3.134v-3.134h3.778a16.631 16.631 0 01-.4 3.267 51.648 51.648 0 00-3.378-.133zm4.667-4.022a17.602 17.602 0 00-.378-3.356c.29-.022.578-.067.845-.111.844-.111 1.466-.267 1.933-.445a8.629 8.629 0 011.156 3.89H15.11v.022zM17 4.889c-.511.155-1.333.311-2.489.444-.4-1.422-.978-2.644-1.689-3.51A8.77 8.77 0 0117 4.888zM7.178 1.8c-.711.889-1.29 2.089-1.69 3.511C4.334 5.2 3.512 5.044 3 4.867A9.067 9.067 0 017.178 1.8zM3 15.111c.511-.155 1.333-.311 2.489-.444.4 1.422.978 2.644 1.689 3.51A8.77 8.77 0 013 15.112zm9.822 3.089c.711-.889 1.29-2.089 1.69-3.511 1.155.111 1.977.267 2.488.444a9.067 9.067 0 01-4.178 3.067z" fill="#fff"/></svg>