<svg width="25" height="26" fill="none" xmlns="http://www.w3.org/2000/svg"><path d="M12.5.5C5.611.5 0 6.111 0 13s5.611 12.5 12.5 12.5S25 19.889 25 13 19.389.5 12.5.5zm9.361 17.917c-.583-.223-1.361-.39-2.417-.556-.333-.055-.694-.083-1.055-.139.278-1.305.444-2.694.472-4.194h4.445c-.084 1.805-.584 3.444-1.445 4.889zm-8.055 5.333c-.25.028-.5.056-.75.056v-5.223c1.5 0 2.805.056 3.944.167-.722 2.417-1.861 4.25-3.194 5zM8 18.722a73.065 73.065 0 013.944-.166v5.222c-.25 0-.5-.028-.75-.056-1.333-.722-2.472-2.555-3.194-5zm-6.306-5.166H6.14c.028 1.5.194 2.888.472 4.194-.361.028-.722.083-1.055.139-1.056.139-1.834.333-2.417.555a10.56 10.56 0 01-1.445-4.888zM3.14 7.583c.583.223 1.361.39 2.417.556.333.055.694.083 1.055.139a22.012 22.012 0 00-.472 4.194H1.694c.084-1.805.584-3.444 1.445-4.889zm8.055-5.333c.25-.028.5-.056.75-.056v5.223c-1.5 0-2.805-.056-3.944-.167.722-2.417 1.861-4.25 3.194-5zM17 7.278a73.101 73.101 0 01-3.944.166v-5.25c.25 0 .5.028.75.056C15.139 3 16.278 4.833 17 7.278zm-3.944 1.25c1.5 0 2.944-.084 4.222-.167a20.79 20.79 0 01.5 4.083h-4.722V8.528zm-1.112 0v3.916H7.222a20.79 20.79 0 01.5-4.083c1.278.083 2.722.167 4.222.167zm-4.722 5.028h4.722v3.916c-1.5 0-2.944.084-4.222.167-.278-1.25-.444-2.639-.5-4.083zm5.834 3.916v-3.916h4.722a20.79 20.79 0 01-.5 4.083c-1.278-.083-2.722-.167-4.222-.167zm5.833-5.028a22.02 22.02 0 00-.472-4.194c.36-.028.722-.083 1.055-.139 1.056-.139 1.834-.333 2.417-.555a10.786 10.786 0 011.444 4.86H18.89v.028zm2.361-5.833c-.639.195-1.667.389-3.111.556-.5-1.778-1.222-3.306-2.111-4.39a10.962 10.962 0 015.222 3.834zM8.972 2.75c-.889 1.111-1.61 2.611-2.11 4.389C5.416 7 4.388 6.806 3.75 6.583A11.334 11.334 0 018.972 2.75zM3.75 19.389c.639-.195 1.667-.389 3.111-.556.5 1.778 1.222 3.306 2.111 4.39a10.962 10.962 0 01-5.222-3.834zm12.278 3.861c.889-1.111 1.61-2.611 2.11-4.389 1.445.139 2.473.333 3.112.556a11.334 11.334 0 01-5.222 3.833z" fill="#282828"/></svg>