<svg width="49" height="48" fill="none" xmlns="http://www.w3.org/2000/svg"><path d="M33.402 15.348a5.98 5.98 0 00-3.794-1.339c-1.615 0-3.177.64-4.286 1.755a6.273 6.273 0 00-.715.86C23.474 14.99 21.643 14 19.67 14c-.361 0-.728.033-1.09.098-1.866.339-3.334 1.36-4.36 3.037-1.471 2.404-1.587 4.623-.358 6.786.66 1.158 1.518 2.291 2.625 3.463 2.037 2.156 4.448 4.2 7.59 6.438a.905.905 0 00.528.178c.284 0 .476-.143.586-.225 2.792-1.983 5.083-3.893 7.006-5.843 1.08-1.096 2.305-2.444 3.2-4.12.376-.705.805-1.652.78-2.722-.056-2.341-.99-4.274-2.775-5.742zm.85 7.86c-.817 1.53-1.966 2.79-2.98 3.82-1.831 1.856-4.013 3.681-6.67 5.58-2.958-2.122-5.242-4.067-7.17-6.108-1.036-1.096-1.833-2.148-2.44-3.216-.991-1.742-.885-3.482.335-5.476.826-1.35 2-2.17 3.485-2.44.285-.05.573-.077.858-.077 1.77 0 3.338.972 4.188 2.592.049.095.097.185.175.33a.647.647 0 00.572.343h.011a.649.649 0 00.571-.36c.31-.626.645-1.11 1.056-1.524.868-.872 2.094-1.371 3.366-1.371 1.096 0 2.15.37 2.967 1.043 1.483 1.218 2.258 2.826 2.305 4.777.017.766-.309 1.485-.63 2.087z" fill="#fff"/></svg>