<svg width="23" height="20" fill="none" xmlns="http://www.w3.org/2000/svg"><path d="M20.341 1.507A5.682 5.682 0 0016.737.236c-1.534 0-3.019.607-4.072 1.666-.246.246-.47.518-.68.818C10.91 1.166 9.17.227 7.296.227c-.343 0-.69.031-1.034.093-1.774.322-3.168 1.293-4.144 2.885C.721 5.488.61 7.597 1.778 9.651c.627 1.1 1.442 2.177 2.494 3.29 1.935 2.048 4.225 3.991 7.21 6.116a.86.86 0 00.502.17.89.89 0 00.556-.215c2.653-1.883 4.83-3.698 6.656-5.55 1.027-1.041 2.19-2.322 3.04-3.913.358-.67.765-1.57.741-2.587-.053-2.224-.94-4.06-2.636-5.455zm.807 7.467c-.776 1.453-1.867 2.65-2.831 3.63-1.74 1.762-3.812 3.496-6.337 5.3-2.81-2.016-4.979-3.864-6.81-5.802-.984-1.042-1.742-2.041-2.32-3.055-.94-1.655-.84-3.309.32-5.203.785-1.282 1.9-2.061 3.31-2.317.27-.05.545-.074.816-.074 1.681 0 3.17.923 3.978 2.463.047.09.092.175.167.313a.615.615 0 00.543.326h.01a.616.616 0 00.543-.343c.294-.594.613-1.054 1.003-1.447.825-.828 1.99-1.303 3.197-1.303 1.042 0 2.043.352 2.819.991 1.41 1.158 2.145 2.685 2.19 4.538.017.728-.293 1.41-.598 1.983z" fill="#fff"/></svg>