<svg width="148" height="19" fill="none" xmlns="http://www.w3.org/2000/svg"><path d="M13.586 3.127h-9.45v4.786h9.45c.73 0 1.225-.103 1.487-.308.274-.216.41-.592.41-1.128V4.546c0-.524-.136-.889-.41-1.094-.262-.216-.757-.325-1.487-.325zM0 18.064V0h15.45c1.435 0 2.472.28 3.11.837.649.547.974 1.436.974 2.666v4.034c0 1.219-.325 2.107-.974 2.666-.638.546-1.675.82-3.11.82H4.135v7.041H0zm33.978-7.212h7.913l-3.897-7.349-4.016 7.35zm-8.084 7.212L36.114 0h4.05l10.357 18.064h-4.717l-2.17-3.948h-11.45l-2.102 3.948h-4.188zM75.185 3.127h-9.45v5.025h9.45c.73 0 1.225-.103 1.487-.308.273-.216.41-.592.41-1.128v-2.17c0-.524-.137-.889-.41-1.094-.262-.216-.758-.325-1.487-.325zM61.6 18.064V0h15.449c1.435 0 2.472.28 3.11.837.65.547.974 1.436.974 2.666v4.239c0 1.219-.324 2.107-.974 2.666-.638.558-1.675.837-3.11.837H74.69l8.34 6.819h-6.032l-7.28-6.819h-3.983v6.819H61.6zm36.677-7.212h7.912l-3.896-7.349-4.016 7.35zm-8.084 7.212L100.413 0h4.05l10.357 18.064h-4.717l-2.17-3.948h-11.45l-2.103 3.948h-4.187zm39.909-3.401h5.434c2.894 0 4.945-.45 6.152-1.35 1.208-.9 1.812-2.387 1.812-4.46 0-1.846-.501-3.242-1.504-4.187-1.003-.958-2.484-1.436-4.443-1.436h-7.451v11.433zm-4.205 3.401V0h11.622c3.315 0 5.861.775 7.639 2.324 1.788 1.55 2.683 3.749 2.683 6.597 0 1.686-.348 3.207-1.043 4.563a7.909 7.909 0 01-2.939 3.179c-.786.49-1.766.848-2.94 1.076-1.162.217-2.654.325-4.477.325h-10.545z" fill="#E83841"/></svg>