<svg width="139" height="19" fill="none" xmlns="http://www.w3.org/2000/svg"><path d="M.508 4.272c0-1.64.307-2.762.923-3.366C2.046.302 3.23 0 4.985 0h13.296c1.755 0 2.94.302 3.555.906.615.604.923 1.726.923 3.366v9.52c0 1.652-.308 2.78-.923 3.383-.615.593-1.8.889-3.555.889H4.985c-1.754 0-2.94-.296-3.554-.889-.616-.604-.923-1.732-.923-3.384V4.272zm4.204 10.391h13.86V3.23H4.712v11.433zM50.584 2.94h-9.587v4.306h9.587c.73 0 1.23-.097 1.504-.29.285-.194.428-.53.428-1.009V4.238c0-.467-.143-.797-.428-.99-.273-.206-.774-.309-1.504-.309zm0 7.28h-9.587v4.597h9.587c.798 0 1.333-.12 1.607-.359.285-.24.427-.66.427-1.265v-1.367c0-.604-.142-1.02-.427-1.247-.274-.24-.809-.36-1.607-.36zm-13.723 7.844V0h15.484c1.424 0 2.455.28 3.093.837.638.559.957 1.447.957 2.666v2.205c0 .866-.268 1.56-.803 2.085-.536.513-1.305.832-2.307.957 1.037.137 1.834.507 2.392 1.11.57.605.855 1.39.855 2.36v2.306c0 1.197-.439 2.085-1.316 2.666s-2.21.872-4 .872H36.862zM74.103 0v14.663h11.98V0h4.188v13.791c0 1.652-.308 2.78-.923 3.384-.616.593-1.8.889-3.555.889H74.377c-1.743 0-2.928-.296-3.555-.889-.615-.604-.923-1.732-.923-3.384V0h4.204zm36.781 18.064L100.442 0h4.803l7.314 13.057L119.532 0h4.187l-9.929 18.064h-2.906zm23.007 0V0h4.204v18.064h-4.204z" fill="#fff"/></svg>