<svg width="49" height="48" fill="none" xmlns="http://www.w3.org/2000/svg"><path d="M30.628 29.221c1.538-1.516 2.597-3.52 2.84-5.782.557-5.175-3.244-9.863-8.513-10.39-5.27-.527-9.938 3.27-10.5 8.49-.561 5.218 3.245 9.863 8.514 10.39a9.558 9.558 0 006.293-1.57l3.57 4.358c.162.148.372.257.592.279a.882.882 0 00.643-.2.84.84 0 00.13-1.217l-3.57-4.358zm-14.416-7.507c.458-4.262 4.297-7.351 8.6-6.921 4.303.43 7.402 4.213 6.944 8.475-.458 4.262-4.297 7.351-8.6 6.92-4.303-.43-7.398-4.256-6.944-8.474z" fill="#fff"/></svg>