<svg width="23" height="19" fill="none" xmlns="http://www.w3.org/2000/svg"><path d="M5.54 12.846c-.782-1.918-.961-4.094-.328-6.198C6.661 1.832 11.75-.944 16.57.528 21.388 2 24.062 7.104 22.6 11.96c-1.46 4.857-6.537 7.592-11.356 6.12a8.986 8.986 0 01-4.934-3.717L1.55 16.93a.995.995 0 01-.623.03.83.83 0 01-.49-.414.82.82 0 01.341-1.134l4.763-2.566zm15.455-1.376c1.193-3.967-1.018-8.133-4.953-9.336C12.106.932 7.972 3.16 6.778 7.126c-1.193 3.966 1.018 8.133 4.954 9.335 3.935 1.203 8.082-1.066 9.263-4.991z" fill="#373232"/></svg>