<svg width="28" height="23" viewBox="0 0 28 23" fill="none" xmlns="http://www.w3.org/2000/svg">
<path d="M15.3885 2.33391L15.3877 2.33468C15.1104 2.60264 14.8554 2.89936 14.6172 3.23079L14.2109 3.79596L13.805 3.23051C12.5833 1.52849 10.6097 0.5 8.48299 0.5C8.09303 0.5 7.69652 0.534525 7.30482 0.602714L15.3885 2.33391ZM15.3885 2.33391C16.5771 1.18032 18.2632 0.510645 20.0137 0.510645C21.5264 0.510645 22.979 1.00785 24.1052 1.90106C26.0616 3.45398 27.0741 5.47912 27.1357 7.95176C27.1612 9.00976 26.7207 9.97121 26.2932 10.7462C25.2909 12.5564 23.913 14.0237 22.667 15.2434C20.462 17.4012 17.8274 19.5223 14.6058 21.7302L14.6057 21.73M15.3885 2.33391L14.6057 21.73M14.6057 21.73L14.595 21.7378M14.6057 21.73L14.595 21.7378M14.595 21.7378C14.4764 21.8237 14.3669 21.8949 14.2091 21.8949C14.1072 21.8949 13.9977 21.8644 13.8785 21.783C10.2526 19.2912 7.48224 17.0218 5.14711 14.6373C3.88484 13.3477 2.91579 12.1104 2.17479 10.8546C1.5053 9.71825 1.2132 8.58845 1.27587 7.43821C1.33879 6.28338 1.76146 5.07112 2.58073 3.77859M14.595 21.7378L2.58073 3.77859M2.58073 3.77859C3.69781 2.01872 5.27908 0.957093 7.30469 0.602738L2.58073 3.77859Z" stroke="#282828"/>
</svg>
