<svg width="19" height="19" viewBox="0 0 19 19" fill="none" xmlns="http://www.w3.org/2000/svg">
<path d="M2.50865 9.02344C2.50865 12.9002 5.72618 16.0417 9.69615 16.0417C13.6664 16.0417 16.8836 12.8999 16.8836 9.02344C16.8836 5.1467 13.6661 2.00521 9.69615 2.00521C5.72591 2.00521 2.50865 5.14696 2.50865 9.02344ZM0.455078 9.02344C0.455078 4.03993 4.59132 0 9.69615 0C14.7999 0 18.9372 4.03883 18.9372 9.02344C18.9372 14.0069 14.801 18.0469 9.69615 18.0469C4.59245 18.0469 0.455078 14.008 0.455078 9.02344ZM8.66936 8.02377V13.0309C8.66936 13.5974 9.12907 14.0365 9.69615 14.0365C10.2672 14.0365 10.7229 13.5863 10.7229 13.0309V8.02377C10.7229 7.45725 10.2632 7.01823 9.69615 7.01823C9.12512 7.01823 8.66936 7.46843 8.66936 8.02377ZM8.66936 5.01302C8.66936 5.5706 9.12907 6.01562 9.69615 6.01562C10.2672 6.01562 10.7229 5.56674 10.7229 5.01302C10.7229 4.45544 10.2632 4.01042 9.69615 4.01042C9.12512 4.01042 8.66936 4.4593 8.66936 5.01302Z" fill="#E83841"/>
</svg>
