<svg width="28" height="23" fill="none" xmlns="http://www.w3.org/2000/svg"><path d="M15.389 2.334h-.001a6.567 6.567 0 00-.77.897l-.407.565-.406-.565A6.549 6.549 0 008.483.5c-.39 0-.786.035-1.178.103l8.084 1.73zm0 0C16.576 1.18 18.262.51 20.014.51c1.512 0 2.965.497 4.091 1.39 1.957 1.553 2.97 3.578 3.03 6.05.026 1.059-.414 2.02-.842 2.795-1.002 1.81-2.38 3.278-3.626 4.497-2.205 2.158-4.84 4.28-8.061 6.487h0m.783-19.396l-.783 19.396m0 0l-.011.008m.01-.008l-.01.008m0 0c-.119.086-.228.157-.386.157a.576.576 0 01-.33-.112c-3.626-2.492-6.397-4.761-8.732-7.146-1.262-1.29-2.231-2.527-2.972-3.782-.67-1.137-.962-2.267-.9-3.417.064-1.155.486-2.367 1.306-3.66m12.014 17.96L2.581 3.778m0 0C3.698 2.019 5.279.959 7.305.604L2.58 3.779z" stroke="#282828"/></svg>