<svg width="19" height="19" fill="none" xmlns="http://www.w3.org/2000/svg"><path d="M2.509 9.023c0 3.877 3.217 7.019 7.187 7.019s7.188-3.142 7.188-7.019c0-3.876-3.218-7.018-7.188-7.018-3.97 0-7.187 3.142-7.187 7.018zm-2.054 0C.455 4.04 4.591 0 9.696 0c5.104 0 9.241 4.039 9.241 9.023s-4.136 9.024-9.24 9.024c-5.105 0-9.242-4.039-9.242-9.024zm8.214-1v5.008c0 .566.46 1.005 1.027 1.005.571 0 1.027-.45 1.027-1.005V8.024a1.01 1.01 0 00-1.027-1.006c-.57 0-1.027.45-1.027 1.006zm0-3.01c0 .558.46 1.003 1.027 1.003.571 0 1.027-.45 1.027-1.003 0-.558-.46-1.003-1.027-1.003-.57 0-1.027.45-1.027 1.003z" fill="#E83841"/></svg>